<mxfile host="Electron" modified="2023-10-06T16:04:39.439Z" agent="Mozilla/5.0 (Windows NT 10.0; Win64; x64) AppleWebKit/537.36 (KHTML, like Gecko) draw.io/21.7.5 Chrome/114.0.5735.289 Electron/25.8.1 Safari/537.36" etag="cgg0dALlUgwLYoiTyCJM" version="21.7.5" type="device">
  <diagram name="Page-1" id="rAkNZ2TCanSdIAFFG8Kh">
    <mxGraphModel dx="1434" dy="836" grid="1" gridSize="10" guides="1" tooltips="1" connect="1" arrows="1" fold="1" page="1" pageScale="1" pageWidth="850" pageHeight="1100" math="1" shadow="0">
      <root>
        <mxCell id="0" />
        <mxCell id="1" parent="0" />
        <mxCell id="_97EwcZJtdS-pwnFcjl7-1" value="" style="shape=image;verticalLabelPosition=bottom;labelBackgroundColor=default;verticalAlign=top;aspect=fixed;imageAspect=0;image=data:image/png,iVBORw0KGgoAAAANSUhEUgAABHQAAANhCAYAAACGsOwQAAAAAXNSR0IArs4c6QAAAARnQU1BAACxjwv8YQUAAAAJcEhZcwAAEnQAABJ0Ad5mH3gAAJjPSURBVHhe7N0LeJTltff/ZandxWLdoN1qwVMrdqO1obFoMYIgEd4EIghuzhRaSAXaahCUSqLWElRQJGoFbEIL5RCggmAg2UAQBEIq1BS0Sv8EKyJstVrowRe6Vd78WZN7YDKZwzOTOTyH7+e6enHfT1BLMgnP85t1r3VWwykCAAAAAAAAx/ic+RUAAAAAAAAOQaADAAAAAADgMAQ6AAAAAAAADkOgAwAAAAAA4DAEOgAAAAAAAA5DoAMAAAAAAOAwBDoAAAAAAAAOQ6ADAAAAAADgMAQ6AAAAAAAADkOgAwAAAAAA4DAEOgAAAAAAAA5DoAMAAAAAAOAwBDoAAAAAAAAOQ6ADAAAAAADgMAQ6AAAAAAAADkOgAwAAAAAA4DAEOgAAAAAAAA5DoAMAAAAAAOAwBDoAAAAAAAAOQ6ADAAAAAADgMAQ6AAAAAAAADkOgAwAAAAAA4DAEOgAAAAAAAA5DoAMAAAAAAOAwBDoAAAAAAAAOQ6ADAAAAAADgMAQ6AAAAAAAADkOgAwAAAAAA4DAEOgAAAAAAAA5DoAMAAAAAAOAwBDoAAAAAAAAOQ6ADAAAAAADgMAQ6AAAAAAAADkOgAwAAAAAA4DAEOgAAAAAAAA5DoAMAAAAAAOAwBDoAAAAAAAAOQ6ADAAAAAADgMAQ6AAAAAAAADkOgAwAAAAAA4DAEOgAAAAAAAA5DoAMAAAAAAOAwBDoAAAAAAAAOQ6ADAAAAAADgMAQ6AAAAAAAADkOgAwAAAAAA4DAEOgAAAAAAAA5DoAMAAAAAAOAwBDoAAAAAAAAOQ6ADAAAAAADgMAQ6AAAAAAAADkOgAwAAAAAA4DAEOgAAAAAAAA5DoAMAAAAAAOAwBDoAAAAAAAAOQ6ADAAAAAADgMAQ6AAAAAAAADkOgAwAAAAAA4DAEOgAAAAAAAA5DoAMAAAAAAOAwBDoAAAAAAAAOQ6ADAAAAAADgMAQ6AAAAAAAADkOgAwAAAAAA4DAEOgAAAAAAAA5DoAMAAAAAAOAwBDoAAAAAAAAOQ6ADAAAAAI7VIJ/9rV62Ln1c7hudK9+5/Er5Ts6dMn3hy3Lw45Pm9wBwo7MaTjFrAAAAAIBTfPYXqfvts/LorI0ifcfKD3Iy5MLWIscPbZWy6aXyxyvvkV+W5Uvmua3MPwDATQh0AAAAAMBhGj7+o5RPmywP11whBXMfkvwbLpbPm49p1c6nbz8vd91RKH/I/oVUPNZbvnKW+RAA1+DIFQAAAAA4SMPHr8viyRPkwfVfkYJfPybjm4Q56iw5+4o+kj/yGvloxTxZ+od/mOsA3IRABwAAAAAcojHMmSg/3/A56Td7uuR/698ldPHNufKf118nbWSPPLdwh3zIuQzAdQh0AAAAAMAJGj6SXXN/JjM2HJaz+9wlk/tdHlSZE+gsaf3Vr0mnU6tPq7bLnr/RIBlwGwIdAAAAALC9z+TD6qfk7rl1crJVD/np5By55PORG+Oc1focOVcXn+6S373JsSvAbQh0AAAAAMDmGj58SWZPK5ePpJVcMPx7clvHc8xHrPiLvPnOUeHUFeAuBDoAAAAAYGcNR2X3r5+V5z/UY1PXytDbr5O2FqZWNZw4Lv/0rT6W+g/+Lhy6AtyFQAcAAAAAbKtBPq2vkDnPvda4zegvfTt/uXEdxcljH0i9Wf/zz+/LMbMG4A4EOgAAAABgVw0fSs3iJbLbV17TVrqNvFmutPQUd1KOvX/YVOic2p34hAodwGUIdAAAAADAphre3ykrlh9o3LS6Qfp+t32YMeXBPpGPjhwmxAFcjEAHAAAAAGzpuPxp3UrZ9GnjrlW3W+SGDl9o3ET1Tzm8/7BZi5zd9kvyb2YNwB0IdAAAAADAjj6ply0rf282bSSzd6Z0sFaeI3Lyfamv/cBsRL701fMbR5gDcA0CHQAAAACwnQb53z9ukfJ6U54jV8st3/6qxeNWp/7pv/xZXnvPf+DqPPlmh/OlldkBcAcCHQAAAACwnf8r+2u3y3tmJ+deK1df9kWziaZBTvz5j/K70w10zpNLvvIly2EQAGc4q+EUswYAAAAA2MHJN6U0Z4DM3O+v0GmJPvLYjmfkjg5nmz0ANyDQAQAAAACbaXh7mQzvWSi7fbtW8u+dbpDM9uf4dlE1HJX9W+vksL9C56ppUlGVL504cwW4CoEOAAAAANhKgxyvmSE3jlggH/v218qPVy+VgkyLbY2PbZL7rv+hrPYV97SSCycslU1TbxCLcRAAh6CHDgAAAADYyifyl3f+bMKcU86+Rq65wmoc0yDH33xFNp4+qXWV9O/xjeZhzmfHpH7HKimdPlnG5HxHrrz8SvlOTr48+OwqqXn7n6f+LQDsjkAHAAAAAGzlUzn6wftmfcrV35DLz7N6Xupj+dOuXWfCoIt7So9rzzMb1SCfvbdNnhrbT3JGTpGZC1bLjn1/PXX9pPxtX7Use3yKjM4eLTO2HJHPGv8BADZFoAMAAAAAtvJP+eDPH5m1SJvrOkp7q09un/xZflf5J7M5W74+srd0Psc/30rDnJfksXF3yeKPusiPZzwjZSuel5Wrl0tZyf0y7LqvNP62k3+QheOmya/fPB0LAbAhAh0AAAAAsJWT8skJf31MG+l05UXS2uwia5BP/lQja+vNeatWvST/tk7yhcbdqQ8fkU2PPSuH+j4ja1Y9KQUj+kmPG66TzMwbpMeAH8rPF5XJT28+v/H3nqyR32z4/+R/G3cAbIhABwAAAABsq51c+dXzxF9jE9k/5Y+bN8lbvnUruWD4YOnVwR/nnJRjLy+Sxe2nyMwJ3aTDF5s/Cp7V5loZcfcoucK3OynvvfGuHPOtAdgRgQ4AAAAA2Eor+ULrz5v1l+T8L3/RrKM4vk+qV77euD47V6bkd5W2p5Ogv8ubey+Sggk3BFwLdpa0/s/vSHffMK1WcvE1l0hb33UAdkSgAwAAAAC2cq5c+LULzPpKueKrVgKdz+TDrc/Lr987eWrdRq4p+L70vTTwn2snWXePlevPjdJc+Qut5VxflnStDLq5o/yb7yIAOyLQAQAAAABbOVvaXXiRWVv0ab1ULtok2j2n1bd+KA9971sW++401fDeW7L3H63kgiETZMS3v2yuArAjAh0AAAAAsJUvyH9c9jVpY3bRnZRjNb+Vea/8XaTV9TLxoZHy7WiVOCF9LPv+e5387pq7ZW5RL/mKtcY9ANKEQAcAAAAAbOUsaX1VpvQ4W9dH5W//9E+8CuNfb8rzc1fLR9JBsqf/TO68rq3FJsqB/lfe2/KsTH/1Vlm1bKJkxhUIAUglAh0AAAAAsJmzLvim9Oz1lVOrd+XAkY8bL4b0sexf/rQ8ueukdBpXLNOHdRKLLZSN/yf/eq9O1s4aL/2/P1/q3twk5b+plNc+ZGA5YHdnNZxi1gAAAAAAWzgpx7bOkJwxv5FWE5bKpqk3yDnmI2ec+j2vPCXfG/5rkTEl8sv7b5GLP2+xNufk27KpZIGs3bldNr166NS/KUjbG+XOObNkUo/24p+3BcBeCHQAAAAAwI4+PSDP/+T78tNNl8nkF34h47/172eOUjUcl3dfXiAPTH5evjD2Ufn5D7vKRVbDnECffSwfffihvLd/r/xuU7k8t2SX/M18SFp1l6kVz0r+1da7+QBIHQIdAAAAALClBvnsvZfksXEFsvD978gPp46UHle2lc+f+B+pq1osv9xxseTPuEdG3XipfDEhDYw/lWOvLZP7vz9dqv/aWLNz9m3PyrancmmQDNgQgQ4AAAAA2FaDfHZsn2wqXy4vVFTKS/tEvpGdK/1uGyADeneWi7+Y6LaoJ+Xj18pk7O2Pyaua6Zw7Vha9UihZ55DoAHZDoAMAAAAAOKPhf6Tq7kHykxffP7XJk9m/e1L6X0QnHcBumHIFAAAAADjjrPOl03c7Na7PaSvnncNjI2BHfGcCAAAAAAK0ki+eYxohd7xC2rfhsRGwI74zAQAAAAABTsq/jn986tdz5Nrbu8rXeWoEbIlvTQAAAADAGQ3/I7/fuEfkKwNlYt+v89AI2BTfmwAAAADgev8rH772krxYuU1ef/+4hJ+Mc1L+uWu1PLe1rQx6OF96foVmyIBdMeUKAAAAANzuw0q5+7s/kvU6irzVtTJo+kMyZXCmfOXzgePIP5Vjry2T+8eulvPue1QeuONqacO0csC2CHQAAAAAwO1O/EHmDvmePPma9sZRraTdzfly75ge8vXzPi+f/eNd2Vv9W3nxwy4y/u7vSZ+r2wm1OYC9EegAAAAAgOs1yGd/OyA71q+Ryi2/k11b6uTwSZFWl2bKzTd8WzK+mSldbuwi37ryK/JFqnIARyDQAQAAAAAAcBiaIgMAAAAAADgMgQ4AAAAAAIDDEOgAAAAAAAA4DIEOAAAAAACAwxDoAAAAAAAAOAyBDgAAAAAAgMMQ6AAAAAAAADgMgQ4AAAAAAIDDEOgAAAAAAAA4DIEOAAAAAACAwxDoAAAAAAAAOAyBDgAAAAAAgMMQ6AAAAAAAADgMgQ4AAAAAAIDDnNVwilkDAAAAABKkvr7erGLXoUMHad26tdkBQHMEOgAAAAAQIw1rjh8/Lgfffls+/vhj2bdvn+/68qXLfL8mUp/cHGnbtq106HCJXHzxRfIfF14oF1xwAaEP4HEEOgAAAAAQxtGjR+Xdd9/1BTe7d++Wtw4ckN2v7DIfTb9LL79MbszKkk6dOsnXvv51ufTSS6V9+/bmowDcjEAHAAAAAIwjR474qm3+UFcnVZWVcujgO+YjzjJ0xHDp0qWLXH3NNdKxY0dzFYCbEOgAAAAA8CytwKmrq3N8gBONP+D5zqn/UcEDuAOBDgAAAABP0SqcrVu2yM6dO2VDZZW56h16TGvwkKHS9caukpGRYa4CcBoCHQAAAACu5w9x1lVU2KoHTroR7gDORaADAAAAwJX8x6kWlJYmNcTxT6HSxsRt2rSRL53632WXXWY+KnL++edLu3btzC68EydOyOHDh81O5KOPPpK/fPCBb60NmVUypmj5abgzdtw46dGzJ8eyAAcg0AEAAADgKjpSfM0LL8hzc+eZK4mhwc21137LNzpcmw1bDWoSzR/8vPPOO/LB++/7mjgnOujRP+vIUaOkc+fOjEYHbIpABwAAAIDjacixZ88eebqkJCHVOF1uuF4yr7tOvp2Z6au2ccKkKD1WdujQIdm7Z6+8/vprCekP5K/aycnNTUt4BSA8Ah0AAAAAjqXHqrZv2yZPlZS0aEKVBhcaWmiAk3nqf24IL/whlwY8L2/d0uKga8rUqZJ3Wx7HsQCbINABAAAA4Dga5KxcsVKemDnTXImdVuH0y8uTb157rScaAmsFz+9375aNGze2qHpHR6CPHjPGEVVLgJsR6AAAAABwjJYGOf4Qx+uNf/0No19YvTrucIdgB0gvAh0AAAAAtqfHhzZu2BD30So9LsRo7tD8I90XlJXF/bkdPGQwPXaAFCPQAQAAAGBr1dXV8khxccxhg1bjjM3Pl6ysLCY1WVRbWyvr162La2rWw8XTZeCgQXyugRQh0AEAAABgSzp+/MGiopib+XIUqOXiPdqmzaWnnfqaZWdnmysAkoVABwAAAICt6PGqXzzzjDw3d565Yg1HfxIv3qNufXJzZFphIROxgCQi0AEAAABgG/EcryLISb54gx2OYQHJQ6ADAAAAIO30iM+Ts2fH1LuFICf14gl2tJfRz4uLOQIHJBiBDgAAAIC0irUqR3vkTJg4keM8aaTBzqKFi2LqsUO1DpBYBDoAAAAA0iLWXjlUethPrJVV+jV84sknCeOABCDQAQAAAJByOsHqzvx8S1U5Ojnp7oIC6T9ggLkCu9m7d6889sgjlieSzS8rZRIW0EIEOgAAAABSau2aNTK5YJLZRXbnxAkydtw4+uQ4gL+/Tixf2x//5CccwQLiRKADAAAAICX0gX9GcbGl4zlalTPnqackIyPDXIFTHDlyRB6ZMUM2VFaZK+FxBAuIH4EOAAAAgKTTh/wp99xj6UgOlRvuYLUSS8O7GY8+Kl27djVXAFhBoAMAAAAgqWpra6Xw/vuj9svhwd59YgnydArWiJEjzQ5ANAQ6AAAAAJJGR5KPH5dvduH1yc2R6cXF9MpxoVhGnE+ZOlVGjxlNdRZgAYEOAAAAgKSYP2++pYd4KjO8wWqlloZ7T8yeTagDREGgAwAAACChtCLjF888I8/NnWeuhEbjY++x2jBZQ51phYU0SwYiINABAAAAkDAa5kyZPDnqAzvTjbwrlsBv8dKlvEaAMAh0AAAAACSE1TBn6IjhUlhUxJEaj1u6ZIk8VPSA2YVGqAOER6ADAAAAoMWshjna9Hb8hPFmB6/Tvjqjhg03u9AIdYDQCHQAAAAAtIjVMGd+WalkZ2ebHdCovr5e7szPj9gsmVAHaI5ABwAAAEDcrIY5i8uXSdeuXc0OaEqbJY8aMYJQB4jB58yvAAAAABATwhwkioY0GtZoaBOOhj0a+mj4A4BABwAAAECcooU5+nBetWkjYQ4s0VBnfVWVb2R5OIQ6wBkEOgAAAABiNn/e/KhhjlZcdOzY0VwBotPJZ0/Mnh011HlkxgxfhRjgZQQ6AAAAAGKiYc4TM2eaXXP0OkFLWAl1NEzUCjFCHXgZTZEBAAAAWGZlzDQ9c5AIR48elTsGDozYKJkx+PAyAh0AAAAAluh46Zxbe5tdaIQ5SCQr068eLp4uI0aONDvAOwh0AAAAAERl5cGaMAfJwGsPCI0eOgAAAAAi0j4l2oQ2WpUED9RIBu3F9FxpqdmFVnj//Uy+gucQ6AAAAACI6BfPPBNxopX2MeHIC5JJp6VpFU44GjZOuecemiTDUwh0AAAAAIRVXV0tz82dZ3bN6SSi0WNGmx2QPFoBppVg4ex+ZZcvfAS8gh46AAAAAELSIyw3Z91kds3pePL1VVW+MdNAqhQVFsrypeGrdeaXlUp2drbZAe5FoAMAAACgGT268oMxY3xVD+G8XLPD198ESCVem0AjjlwBAAAAaGbRwkURH5i1nwkPzEgHrQh74sknfRVi4WgTb/rpwO0IdAAAAAA0sXfvXnli5kyza06bIDPRCumkYeKMRx81u+a0iffqVavMDnAnAh0AAAAATRw/fjxs9QNNkGEXGipquBjOQ0UPSH19vdkB7kMPHQAAAADNHD16VJ6cPbtZ81l6k8BOovXT6XLD9fKrhQtp3A1XokIHAAAAQDPt2rWT4hkzfBOD/NU6s0vmEObAVvz9dMLRoIejV3ArKnQAAAAARKTjy7du2SIjRo40VwB7WbtmjUwumGR2zVFZBjeiQgcAAABARPogTJgDO+s/YICvv1M48+bONavomI4FpyDQAQAAAAA43rTCQrNqTntB1dbWml1kM4qLfRU/gN0R6AAAAAAAHE8ryR4unm52zRXef3/U6pvq6upmjcABuyLQAQAAAAC4wsBBg3yTrUI5dPAd2bhhg9k1p72ixo/LNzvA/gh0AAAAAACuoFOvfjptmtk1p42TdSR/MK3ceWTGDLMDnIFABwAAAADgGhkZGTJ0xHCza27lipVmdYaONt9QWWV2gDMQ6AAAAAAAXGXCxIlm1dwTM2c2qdLZu3evPFT0gNkBzkGgAwAAAABwFW2QPGXqVLNr7snZs32/arAz6e67fWvAaQh0AAAAAACuM3jIYLn08svMrimdZFVfX+8LdrRZMuBEBDoAAAAAANdp166d3F1QYHbNPTWnhBHlcDQCHQAAAACA4yxdskTWrlkj1dXVvmqbUNOrevfpE7ZK578rK80KcKazGk4xawAAAAAAHOHIkSMyasSIZkem+uTmSNu2baVLly7ypTZt5EB9vTwxc5b5qDU6JauYMeawOQIdAAAAAIAjhQt1WopAB07AkSsAAAAAgCPpNKvFS5eGPVYFuBmBDgAAAADAsQh14FUEOgAAAAAARyPUgRcR6AAAAAAAHE9DnRmPPmp2gPsR6AAAAAAAXKFr166yuHyZ2QHuRqADAAAAAHANQh14BYEOAAAAAMBVCHXgBQQ6AAAAAADXIdSB2xHoAAAAAABciVAHbkagAwAAAABwrXhCnZ01NWYF2BeBDgAAAADA1WINdQ4dfEdOnDhhdoA9EegAAAAAAFwv1lDn8OHDZgXYE4EOAAAAAKSAVnzU19c3+9/Ro0fN70CyxRLqvPnGG2YF2NNZDaeYNQAAAAAgAY4cOSL79u2TP9TVycGDB2VDZZX5SHhdbrhevn7lldKlSxe5+pprpGPHjuYjSLS1a9bI5IJJZhfalKlTZfyE8WYH2A+BDgAAAAAkgIY4W7dskXUVFbL7lV3mavwuvfwyGTxkqHS9satkZGSYq0iUosJCWb40fLVOn9wceXbuXLMD7IdABwAAAABaoLa2VpYsXmypCideF331Yuk/YID8+Cc/kdatW5uraAk96nbHwIG+BsjhHDj4tlkB9kOgAwAAAAAx0jBAK3EenzlLThw/bq42N3TEcOnUqZN87etflwsuuEDOOeccad++vflo47/nr3/9qxw/9e84+Pbbsnv3bt/I7HAhw9lnny133zNJxk+YYK6gJTSMGzVsuNk1V7VpI0ffYFsEOgAAAABg0d69e2XNC2tk8cKF5kpz2ntFj0ldddVVcVfTaLPkXa+8IgvKykKGO23btZNHZ82U7OxscwXxenzWLHlu7jyza0obKGsjZcCOCHQAAAAAIAKtotm+bZssLy8P2xun/SUd5J7Jk6V3nz4JPxJVVloqs2c9Lp9++qm5ckbP7F4yc9YsadeunbmCWOn0sR+MGRPya/tw8XQZMXKk2QH2QqADAAAAACFoNc7GDRvCVm+o1ue0lu+NGZP03jYaOvzimWfkV6VlIYOdwocelKFDh9JfJ05aEZVza2+zO0OPzBXPmGF2gL0Q6AAAAACAodU4VZWVliZVfe/7jUFOKqtjjh07Jg8UFsp/h2jAfHH7r8qUe+9NSpWQF4QbZU5jZNgVgQ4AAAAAz9PmuOvXrYs4xjrQ/LLStPav+f3vfy/5Pxgr//zHP8yVM7rccL3cVVBA75c4/GjixGbTynbVvcqRNtgSgQ4AAAAAT/JX44RrPKzO/fKXm4Qml15+mSxeurTJpKp00WNYd+bny84dNeZKUxrs/Ly4mClNMdDXRPAo81Vr10hGRobZAfbR6menmDUAAAAAuJ5W4zw3f77c/eOfyNaXtsjf//Z385Ez7pw4QTpccom8tmevuSLSJzdH5pSU2CLMUTrC/P/k5MiX2rTxjToP9j9HjsjSxYvlLx9+KJdceqmcf/755iMIR4+qte/QQda9WGGuiNzw3RvkP//zP80OsA8CHQAAAACud+TIEVm2dJncd+8UWbjgV/LH1183HzlDK1omn/p48SOPyP/9+GN5ek6J+UhjZc6i3/zGdkdvNNT5TpfvyP9+8om8uvv35mpT+mfVYOcL//ZF+drXv0Z/nSi+9rWvNfl8XnFqn5WV5VsDdsKRKwAAAACupEeS9uzZI0sWL27WFyWQVuNoI2H/sZrgiUd2OmYVjv5Zp0ye3OTP2bZdOzl29KjZnTFl6lQZPWY0wU4E+vnsm5PjO3qlQV/5ihXmI4B9EOgAAAAAcBWtxql4sUJWrlgetjeOPqSPzc+XzMzMJlU3gQ/yflWbNjqiD02o/+8Tf/JjmfvML8zuDA2p7i4oYCJWBIHB3uv73uTzBNv5nPkVAAAAABxLw4zq6mrflKKbs26SJ2bODBnmaHWKBjRacaFTqoKPUK1etarJPze7ZI5jmgpr4PBcaanZNXrrrbd8U5r0zx1I/4w6olsDIO0phOb06/5w8XTf+vDhw75fATuhQgcAAACAY2kVxebqzb4AJxx/NY72QYlUZaETjq7PvM7sGpsgPzt3rtk5x9IlS+ShogfM7syIdf1cLVq4MORodv0c/XTaNKY5haAh4e0DB6Z1TD0QCoEOAAAAAEfRapyamhpZUFoqu1/ZZa42p1UpvbJ7Wa6wKSosbBJ2vFyzw9Z9c8LRz88Pxow5/bnR41Xrq6pOh1ka7JTMmROyr9DQEcNl9Kl/llHnZ/iP8I2fMN5cAeyBQAcAAACAI1ipxtGqmpGjRknnzp1j6nkSXJ2jYZCTH+D1GNWoYcPN7kyVTiD9PU+XlIQMxbRR9Nhx42w31StdNNRxYrgHdyPQAQAAAGBbGrRs37ZNlpeXh63G0QqUwUOGSt5teXE/dM+fN79JUKR9Z5weZgwbMuT05yzSpKa1a9bIUyUlYXsOMRELsCcCHQAAAAC2s3fvXtm4YYM8N3eeudJcvNU4wYKnQzm9OscvuEpn1do1YXvk6OdAP9/aKDkYE7EAeyLQAQAAAGALqarGCRYcfDhlTHk08QRV+jVYuWJlyGNt+rmfVlREc2DAJgh0AAAAAKSVlWocbdbbt18/6dq1q7mSOI/PmnX6vx3paJITBR4l00Dmpa1bfetotGfMvLlzw07EuqugIClfCwDWEegAAAAASDmtBKmqrJQFZWUhe7coDSC0MW9Obm5S+9nc0qPH6f8PDxdPlxEjR/rWbqBh2aD+A8wu9sldTMQC7ItABwAAAEDK6PGm9evWhaz88EtmNU4wrUS5Oesms3PPcatAV15+hVmJzC6ZI/0HnAl4rIo0EUu/XvdMnsxELCDFPmd+BQAAAICk0GqcpUuW+CphtFdNuGM8GjbodKniGTNSdpxn3759ZtXIjdUmGrj47d+/36xio18PPYqm48+1ciqQfj115Lse79KvNYDUINABAAAAkHDakFerOooKC30P+w8VPRDyaNWdEyf4pi9pWKCVI6mu8vjg/ffNqnFqlht16tTJrEQOHjxoVvHRhsjrq6p84VtwsKO9eu4YONA3Bl2//nAXPX5HYGcvBDoAAAAAEkaPMGmlhk5XslKNc+9994UdpZ0KgRU6l19+uVm5y4UXXWRWErIXTqx0dLmGb8+vXu2bnBVIQzsdfa5f/+rqanMVTqcB3YNFRb5wVpuIa28mpB+BDgAAAIAW8Vfj/GjiRF8/Gq3UsGM1TjRXXXWVWbnLZZc1raRJFP366Rh0DeYCj3Up/fqPH5cvw4YM8b024Gw6hc7fP0knwmmjbf3aUo2VXjRFBgAAABAXrcapeLFCVq5YHjLAUVqNMzY/X7KysnyVHXYTOOEq3obBdqdHZXJu7W12yWv8rP+dRQsXhqzK0uNsBZMmMRHLgTSw0YqrcN/jSiu1emX34uubYgQ6AAAAACzTh7uamhp5YfXqiMd3nPKAFzgBShv+ao8Yt9G+J3pUxi/Zk7yiTcSaMHFiTKPTkV5ahaPH6Kywe4DrNgQ6AAAAAKLS6ovN1Zt9x6nCceLDXGCgo8fB0tnPJ5kC/5ypGs2uPXQeKS4OWdmhgd/gIYMZdW5zVqpzQtGG2YOHDJW82/II75KIQAcAAABASP5qnAWlpSGrLZT/wc2pxy0Cgw63HrnSo3Ha28gvVYGO0teQ9l95qqQkZCign/PeffpQzWFTsVTnhKNVWcUzZpgdEommyAAAAACa0GocnVR1baerfY1tQ4U52hNlcfky3whrbYzrxDBHuXVUeaDjx4+bVaPzzz/frJLPPxFLXyfBE7GUfyKWBgewFz2q19IwR3Xp0sWskGgEOgAAAAB8D2/6UK2Ta7SBbqijVVqNow/lL9fskGfnzpWuXbs6vrKibdu2ZuUd6TjmpK8T/0QsnXYWSCt3NDhgIpa9rFyx0qzipz8ztAILyUGgAwAAAHjY3r175fFZs3xNc/Wh2ko1jpt6Ypx33nlmJbJ7926zcpc333jDrNJPw6R777vPd+wreNS5vvZGDRvuG3+vVWJIHw14I/XLsuruggKO0yURgQ4AAADgMYHVOIP6D5Dn5s4zHzlD31l/uHi6q6pxQrnqqqvMSuStAwfMyl3ee+99s2rsZ2IHekRP+6poI2ptph1Ip6dplVhRYSHBTppQneMMNEUGAAAAPEKPs+zYvj1kgOOnD/x9+/XzBTheoBVKGmr56ZEgt01e0uDOX3mlId2IkSN9azvR12bh/fczEcsGgptox0ur+rzycyRdCHQAAAAAF9NqnKrKSllQVhZ29LC+kz523DjJyc313EOzfn70uJmf2x5CnfTnizYRS8OogYMGcYQnybQyavnSZWYXH626Kl+xwuyQLAQ6AAAAgAtpxcP6desiPph5rRonnMAKFq0G0T5BbqGvA+1L4+eECiQNdhYtXBS2Mbf2ZWHUeXLoETc97tZSVOekBj10AAAAAJfQaoylS5bILT16+B7iQ4U5+s757JI5vgd77WHCQ5dIv7w8s9LeIct9gYJbaKjnp82tnVCBFTgRK3jUuX8i1g/GjGEiVhIsWrjQrOKnP2P4uZIaVOgAAAAADqbhw549e2TJ4sW+ZrLh6KhorWrIyMgwV+AX3DPELdUFwcetNMjrP+BMvyCn0KoRDRrCBZQ/Ly72NVlGyySqOkcbXfNzJjUIdAAAAAAH0hCi4sUKX0VJuN44+rA7dNgw6da9Ow1lowg8duWW/h9arfVQ0QNm5/yGzxo4PFhUFHK0vh4fHD1mDMFOC+i4+EihsBX6ddDKP6QGgQ4AAADgEFTjJE91dbWMH5dvdiJVmzY6OhzQ10rfnJzTYZ++Ju697z7f2un0qNXTJSUhgx0mYsUnuNdSvJz+feM0BDoAAACAzVmtxhmbny9ZWVk0i41DcADi9Cqd4Ooctz1o69cr0kQsDXZGjxnN94JFgRVq8aI6J/UIdAAAAAAb0gfWmpoaWVBaGvFBSx9ce2X34l3xBFi7Zo2v4a7f/LJSyc7ONjvnCO4J5OYHbf0+Wb1qVZPwyo+JWNZQneNcBDoAAACAjWifkM3Vm0OObPajGic5gqt0NBB4fvVqxx3fCe6F4oUHbW0AvXLFyrCjzmc8+iiTl8JIRHWOm470OQmBDgAAAJBmVqpx9KF08JChVOMk2d69e2VQ/zOToJxW3RJcZaQVXDoC3CuiTcT66bRp9JYKEPx6iZfTG247FYEOAAAAkCYaHtTurI1YjdMnN0dGjholnTt3phonRR6fNUuemzvP7EQeLp4uI0aONDv7Cg6jNARcX1XlydeNBjslc+aEbB7ORKxGwRVp8fJaaGgnBDoAAABACunRkO3btsny8vKo1Th5t+VJ+/btzVWkSqgH3cXly2x9ZEf75owaMaLJ/2d6mkSeiKXHhMaOG+fZyhKqc5yPQAcAAABIAa2e0Kk8gZUfwajGsQ+t8Mi5tbfZNbJrqBMqzJldMkf6DzhTreN1Gl4wEesMqnPcgUAHAAAASBKr1ThaJZCTm8u73DYTavqP3UKdUGEOD9mhaYihoWqoqhT9PvTSRKxEVefwWksvAh3Aaz77WD768EP58L2/yAfvfyB//79H5cjh9+W9A3VSc2yALFgyXK74nPm9AAAgLhoE7Ni+PWI1jvbx6NuvH5N3bC5UqGOXh1j9/1Z4//2EOTGKNhFrWlGRI8fVW6V//uszrzO7luM1lz4EOoCnfCBbZ/5clu1/X/ZvrZPDJ81l45yRv5YdxT3ky2YPAACs04ekqspKWVBWFvYYA9U4zhQq1NHjcdOLi9PyddRKk9WrVslDRQ+YK414sI6NVjfNmzs37ESsuwoKXBm4zp83P2Ij9njw2ksPAh3AoxpO7JH5Q0bI7NeOmyvnS3bJCzJvwCVylrkCAACi04f99evWhXwo9NPmqzd160Y1joOFCnXSUc2hvX0ePPXfDD7CxwN1/Lw0ESvR1TmBeA2mHoEO4FUN78jzY/rLT1/+u7lwvUytWij5nWjACABANFaqcfQd/qHDhkm37t2pxnGJUP1qVCqqOTR0WLRwYcjgcH5ZqauPCKWKhnbhJmJpsHPP5MmO/15ORnVOIEKd1CLQAbzqeI1Mv2GkLPqn2Z87Vha9UihZ51CfAwBAKHrMZc+ePbJk8eKQ7+T7aTWONlbNyMgwV+Am+jr4xTPPhOyPpMHO2Px8ycrKSlhjXZ2O9tuVK0MGOXrsa1phIaPtE6y6uloeKS4OGdZqYDF4yGBHBjsaSN6cdZPZJQ+hTuoQ6AAe9f/qF8qgWx+W183+7P/6pex8/FZpa/YAAKCRPgRVvFghK1cspxoHp2nQ8tgjj4SdXqbB3rczM6VTp04xBS4aGO3fv19qd9aGfc35JzIxljx5/BOxQo06d+pErKLCwohHQxOJUCc1CHQAT/pM3lszWXoUvCiNfZHbSJdH1siy4V+nfw4AAKdYrcbRh5auN3alGsejIj30B9IA4MasLOnQ4RK5+OKL5OOPP5YvfOEL8sknn0ibNm18+3379slbBw6EDYj8nFwh4kRumYilR/Zybu1tdqlBqJN8BDqAJ30kW4sGybglh8ye/jkAACir1TiJPlYDZ/MHgOH6r7SUvyKECrD00WDnydmzHTsRK5XVOYEIdZKLQAfwov99VUpuGSK/OGLmltM/BwDgYfowXlNTIwtKSyM+jOuDSa/sXq6ZdoPk0FBw65YtsnPnzojVXdFoSHBzj55UgNlMpObU2tOoYNIk2/2MSEd1TiBCneQh0AE8KLh/Tqu8Z2XHM7nyFbMHAMAL9CFnc/XmiBNfqMZBPPwVO2vXrJHnV6w0V60ZPmrkqYffCfLVr37VXIEdRZuINWHiRNs0q/7Rqf8vLQkXE4FQJzkIdADPCe6fc45c+7PVsmrMN+Rzvj0AAO5lpRpHj7cMHjJU8m7LY3oQYhJLA+1rr71WNm7cFLY3ixOb7nqR3SdiafA0athws0svQp3EI9ABXKdBPvvb21K3s0Z27twtda/ulJ37vyTf7nmDdLllkHxv8NfkTz+7I6B/zrXy49VLpSDzXLMHAMB9dCKRNq8NNWraT49LjBw1Sjp37sxDNCzzV+PEO84+WtNdgh3709dApObYs0vmpO1rOGzIkKT0dYoXoU5iEegALtLwr0NSu6JU5pSUy2vn3SrjJ/6X3PztjvLV1v+S/9m7Tp5+cJEcGzhcrln3S1n5numfc873pOx3D0mPL1OfAwBwF31Q3r5tmywvL6caBwmX6AbakXqzOKHpLhqDnUULF0UM51I5at5O1TmBCHUSh0AHcIWT8vHbm2Tu1Afll7tOSKcfzJSn7+kjV7RpZT6uPpX31twrtxSsPbU6o1WfObJ1/gC5mH7ISBG9Af7oo4/kkksuYVIHgKSgGgfJYrUaRx9Y422gTbDjfBomLygrC/kzKJVfQ7tV5wQi1EkMAh3A8T6VY68tk/u/P12q/9paOo0tkV/ef4tc/PnmCU3D4d/K92+6T3aYPf1zkEx6Q6rBzV8++ED2798vBw8e9N386jtUc556iokdABLKajXO2HHjJCc3l0AZMUlHA20NJh975JGQr2f9b/28uJiJazYXKZxL9kQsbcg9uWCS2dkToU7LEegAjnZSPn7jN/LjAT+XHZ+KnN3jEVlfOlS+dnaYcpv318gPvztJXjJb+uegpfSdysOHD58Obnbv3i1vHTgQ9mFK+wf8+Cc/4d1wAAmjRwrWr1sX8oHJTyfO9O3Xj6oGxET/jrPDOPto05RGjxlDsGNzkcK5ZHwN9bXbNycn7FFAOyHUaRkCHcCxGuTTt5+Xu+64Xzb99aTI2Xny2OZZcselXzQfDyE40Dl7qMzbVSy3tg08mgUveXzWrIhHEhJF3xWf8eijPEwBSAitxqmqrPQdaQj3wEI1DuJlpRonHUf2Ik1TstuYbISm4Vzh/feH/BpqsJGoiVhOqM4JRKgTPwIdwKEaPv6DzP/B92X2rr+f2p0nXX5WLr8Z00nObvxwSCdfe1Zuue0JOWL2csMMqV4+XC6nf46nLV2yRB4qesDsEk9vMu+ZPJkHKgAtZqUaRysBb+rWjQAZMdGQsK6uzvbj7LXyItI0pUSGAkiOaF/Dh4uny8BBg+IOCp1UnROIUCc+BDqAEzUck7qnxsuwkl3im1X19QJZue4uyWwdKZn5VA7/9ifS494NZn+2XFm4RtbnXy3U50BLgSfdfXdC//LXG99pRUWSnZ1trgBA7LSR+tYtWyJW42g/kaHDhkm37t15kEVMnNpAm2DH+fRrGG0iVjyjzp1WnROIUCd2BDqA4zTIv978lYzOK5ZXfWlOW+n2+Cr51X9dIZELbT6SrUWDZNySQ2b/NRm99Hl5IKut2cPr9N3JB4qKIk7tsIqqHAAtoQ86ViYJaTWOPvDQZB2xsNpA2wnj7PXPsnLFyoSHAkidSF/DWCdi6b/rjoEDHVedE4hQJzYEOoDTNByStRPukMn//WHj/pzhMm/Hz+XWdlHqbI6/IrN6jZBfvudLgeifg7Dmz5sfsW9AJFTlAGgJrcapeLHi1MPNcqpxkHBWqnH0DQknNtAm2HG+aOPqrUw1a8k9nJ0Q6lhHoAM4SoOcqHtabhtYIm/79q3kwglLZdPUG+Qc3z6cBvnktXmSd9vj8pa5Yq1/ToN89rcD8rtNG2Xj1pdl23/vlsMnW8m/d7pJbulxq+QOzJWbOraVz5vfDffYunWr3Ddlihz96K/mSnRU5QCIh9VqHL3BT+YkIbiT1WoctzTQ1lB03ty5IUMB/XMyoMD+NNh5sKgo5olY+lq/PvM6s3M+Qh1rCHQAJ2n4H6m6e5D85MX3zYVMuefFRTLxW23MPpyP5fVnR8vtj9eZfStpf+9qeelH3wrfP6fhn/L2f8+Tn077pbx6zFT1BGt1rQx67DF54I6rpQ2NlV3BymSPUOaXlVKVAyAm/p830apxxubnS1ZWFpUFiInXx9lHq/aI5RgP0iPSuHoNO4J7JLmlOicQoU50BDqAgzS8+1v5QY/7ZLs/X+l4r7ywfoJc+4UoacqJV6Wk3zD5xVufmguXyrCFq2R6jwvMPti/5N01D8igguflaNtvSd/bu8kV57ZqDHk2vyjr3wis2ugkIxb+Sn7W46IoPXxgV/rueE1NTcTJHpEsLl/GTSEAS6z+vKEaB/HQCgXG2TcVqdrD6jEepI/+zIzW/Hr0mNG+3+em6pxAhDqREegAjvGJvPvbuyX73v9unGxl+bjV/5N/1jwqt44ok4/MFWl1m8zeMVv6XxzqsFSDfPrn5fLDPr+QhokPSuH3b5GO/x4wDL3huLy3q1wenvioVP/VJEtWgyXYSqRqHP8Nb7Rx5oQ5AKywUv2nk4RuHziQahzEzOo4ey830I5U7RHpGA/sQQOb1atWhbwv03u2Cy+86NTX9hVzxX0IdcIj0AGcouFdWTv+dpm8wV8d81UZWPqCzLr1P8w+jOAmyirjIal64dRf3J8z+0ANH8imqd+XpVc9Jr8Y+60wR6lOyj9fKZGBQ35hevlcL1OrFkp+J27A7S5aL4HA8vNIZ7H15mHOU08xWQZAWFaqcfRniRMmCcF+GGcfHw12Cu+/P+TnTO8BJkycyPeijem9Wbjm125HqBMagQ7gFP/YKg989/tSftzspaf8fMs8GX7Fv5l9KA3y6f7fyOj7X5Yv/XWHbDmoR65aycV3r5DqSddJqH+y4cNKuefuD2Xiou9Jx7MjVNw0vC3Pf3+Q/HTrsVObr0jfuWvlqdyLGz8G24k02UNvePvl5TUrP9d31HNu7W12Z+gD2OKlS7nhAxCSlUlCWo0zctQo6dy5M9U4sExDQsbZt5yVYzzB/VlgL5F6JLkZoU5zBDqAQ5zcVyp9cx6RA2Yv502QZbvulev/LVLo8hfZ+uA9srHd1+WNp34jb/guRuqf0yDH6xbJ/H/kyqQe/xGlJ84J2Vc6RvJm6LuubeWWkhfllwM6NH4IthCtGifaDe/aNWtkcsEks2tEmAMglGg/bxTVOIgX4+yTg2DH+aqrq2X8uHyz8wZCnaYIdABH+H/yj60Py01jfiOnC3Sijh1vkBOvzZfhj3xOxvf7g9xVtMH03ukjj+14Ru7oENAXJy6fyftr7pGbCipOra+SH674rdx3w5cbP4S0ilaNY/WGN3haAmEOgGBWqnH8RzmpxkEsrFbj6MNd1xu7Uo3TApGO8ejf/XcXFPjeAOL7136KCgtbXKWjX+NwQaldEeqcQaADOEJgeGJkz5EdZQPkIrNt5tN6WZZfJH8+9b/r14yXib/9n8brV02Tiqp86XR6XvnHcuDlP0jDdTdKxzZhh5iHEPD/6eyhMm9XsdzaNpZ/HomkN2M62WNdRUVc1TihBN4k6PGI6cXFvEsHwHI1jpcmCSFxrFbjMM4+8Qh2nEX7IY0aNtzs4le1aaOvIbZ+7x06dEj+8sEHsnv3btlZU2ProIdQpxGBDuAIsQY6H8v+hffJ1L+MlF/d1UpKbxgqv/x740fa/GCJ7Hwwy0zGOin/fHWe3PmbDjJzdn+55PORD1k1dUxqfn6HjP7VO3LBDxbKpgdvknPNR5A6kSZ7+G94MzMz43qguvLyK3y/apjzxOzZ3MABHmdlklBgY3XAKisNtJU+wDHOPvn0wX7e3Lkhv9c12JlWVCTZ2dnmCtJl2JAhEb9frNCf2cUzZphdc/q9efjwYXnzjTdk//79cvDgwYgVc6lGqEOgAzhEg/zvK49L1yHz5B/mipw7Vha9UihZ5wSHMJ/JhzuelHHPnCfTF4yTaz9cIcN7Fspu38cCmxc3yGfvbZKf37lZrnv2Yel/yRd9v8Oy46/IrF4j5JcfZcvPN8yR4V/jYT9V/NU44SZ7JOKGV/8bOuGKMAfwtmg/bxTVOIiXlXH2VOOkT6TGu/p1uauggPA2TRJdnRMrfW189NFH8ue33pJ9+/altZrH66EOgQ7gFMc2yX3X/1BW66Aqn6/JHaVL5NFbLw5oXvy/8t6OX8q0Z47L6JIC6XHxF4KCoE7y49UrpSCzjTR8/LosnjJH3h35qEy76cIoDZCDfSrvrblXbinYId99pFx+ObyjtLQjD6KzUo2TqBte/Yu6ZM4cwhzAo6xU4zBJCPGwUo2jISENtO1D7wkeLCoK+fXS+4+fTpvGz4EUS0V1Tqz0DYC//vWvaanm8XKoQ6ADOIVvYtUIGbf49JwrkfN7yJ0PTJQ7bmgvZx17W/asWyDPvvFteeixH8pNF+tQ8uCjWm2k0w9+JoW3nJTqpxfJ4b6PyRPfu1baxJbmSMOHG+X+3B/LS9fNkBXP3CFXRBpvjhbRsuetW7YktRoHABSThJBMVqpxGGdvbxr0Pl1SEjJI0HBg9Jgx3I+kQKImW+2qezUlP8f1e/+dd96RD95/31fNE+mNgpbwaqhDoAM4SMOHL8sjY34sv37jY3MlQKurpO9PH5B7R90oHb74OXOxQY6/8oTcOmSufGCu+LTqLMNnPyb39f9GzGGOfHZIqqZ9Xwre6CMLFt4jN33l8+YDSJRokz30hvf2gQMpPwfQYlYnCVGNg3joO/aMs3cfgp300Z/ZfXNyWny8Kd3hh/5sePfdd+Xg22/7qnnqXn21xRVHyouhDoEO4CgN8tmHr0nlb1fJuopKeWmfyDdu7ik39+wlt/bpLp0vPqf50amGv8u+1c/Io0+tkDe/dJ3c0uNW6Tv4Nul+xbkxHrNSJ+Tt394vQx77VH68+BEZdfV5cfw7EE6kd8e54QWQSFTjIJmsjLOnGsfZNFjQr/FTJSVhK4gHDxnMz44EW7tmjUwumGR28UtVdU6s/NU8B+oPyOHD78ZVzeO1UIdAB4BFJ+XYK0/J90bukO/+el4cfXcQipVqHG54ASSC1WocvRnmKCdiZbUaRxto9+jZkzcnXIJgJ3XcUp0TK30DQhswazWPjlN/68CBqNU8Xgp1CHQAWNAg/9q/XApGPC8dZj0tP+3ZXjho1TL+XgJU4wBINiu9SxLdWB3eYaUah3H27qdhw6KFi8L+nJldMsd3bJOfL/FLRHWO3mM+v3q14wM2fb3pOPVI1TxeCXUIdABEoePNX5LHxj0mhwc/GVcTZTTSv3wiTfagGgdAokT7eeNHNQ7iwTh7hKOvjZUrVoYMdvQ1cXdBAcFOHPTzesfAgS2uztFgrf+AAWbnPlrNc+jQIfnLBx/4qnm6dOni6j+vItABEFHDx6/Jgh/9VH5/y0zCnDhFenecG14AiWSlGofG6oiXlXH2VONAaQDx5OzZIV8reu8zrahIsrOzzRVEM3/e/Ig/163Qz/v6qip+7rsMgQ6A8P61T5bdfZeUX1Ikvyq8Wb4SMcz5h9Q9vUj+OnKi3NqulbnmXdHeHeeGF0Ci6INTXV1dxGocvZHnKCfiYaUahwbaCEdD5kULF4YMdvR1c1dBAfdCUej34PWZ15ld/NxeneNVBDoAQvvsiGx9dIrMkXEy//5b5OLPR0pzTsrHbyyW+164UmYW3STnmqtepL0EanfWUo0DIOmYJIRkslKNwzh7WKXBTsmcOSEbsmuw89Np03gdhUF1DiIh0AHQXMPf5LV5P5b/+vVX5aFnhsh/fiFCmPPp3+Xd1zbLkrlvStaChVKQ+WXzAe/Qd04iTfbQG96bunXjHSgALRbt542iGgfxYpw9kk2DwqdLSsJWL48eM4aeXgESVZ0zv6yUI24uRaADoKmGv8ubv5kmYx6qlKPmkiXfKpSKVWOl09neabIT6d1xbngBJFIsk4SoxkEs9IiwlXH2VOMgkQh2rCkqLIxYJWeF3pOWr1hhdnAbAh0ATZzcv1D+K+dhee2kuWBJW+n2+Cr51X9dIW6Pc6xU43DDCyAR9OeN9i5ZV1ERsRqHo5yIh9VqHB1nn5mZyesLCadhogbVT5WUhHwN6j2V/nzz6mtPj6nl3Nrb7OK3uHwZVeIuRqADABZQjQMgVZgkhGSxWo3DOHukUrRgR1+Pg4cM9tw9FtU5sIJABwDC8L87Hm6yB9U4ABIl2s8bpTfm/fLyqMZBzKyMs/dX4zDOHumiwc6ihYvCvk4fLp4uAwcN8sTrk+ocWEWgAwBBIr07zg0vgERikhCSRR+Oa2pqIo6zV1TjwG404F65YmXYiaF3FxT4fia6+T4sEdU5OuXw2blzzQ5uRaADAKdEe3ecG14AicIkISSTlWocfdC7feBA3pyArem9md6XhTru7g92+g8YYK64hwb9o4YNN7v4VW3ayH2rBxDoAPAsfy8BqnEAJJvV3iVU4yAeVqpxGGcPp9KQctHChWHv1e4qKHDVsaJhQ4ZErKqzQvusFc+YYXZwMwIdAJ4T6d1x/w0v1TgAEoFJQkgmK+PstRpn5KhRjLOH43kh2KE6B7Ei0AHgCdHeHeeGF0CiWK3G4Sgn4qHHULZv2ybLy8upxoEnaejxdElJyNe/VqaMHjPGsT9Xqc5BrAh0ALialWocbngBJAKThJBMVqpx/OPseXMCXuC2YCdR1Tkv1+zgvtZDCHQAuA7VOABSxUrvEkU1DuJhtRpn7LhxjLOHZ61ds0aeKikJeaxV+5Lp94fdvzf075K+OTlhj+ZapX/XjJ8w3uzgBQQ6AFwj0rvjVOMASCSrk4QIjxEPfad+x/btlqpx3NQMFoiXBiJawRYu2NGgY/CQwbYNdjSUmlwwyezit6vuVYJdjyHQAeBo0d4d54YXQKJotURdXR2ThJAU+vqqqqz0jWkO9y491ThAZHpfuHrVKnmo6AFzpamHi6fLwEGDbBWyU52DliDQAeBI0apxuOEFkChMEkIyaTXO+nXrQk7u8dNjIzd168abE4BFGpCuXLEy7H3i3QUF0rtPH1v8vKY6By1BoAPAMaK9O041DoBEsdq7hGocxMNKNY420B46bJh0696dhzQgTvq9pt9noQJ5f7DTf8AAcyX1ElWdM7tkTlr/HEgfAh0Athfp3XGqcQAkUiyThAiPEQt9cLMyzl6rcbRyICMjw1wB0FJa2b1o4cKQlXAant5VUJCWn+nz582P2IvNCr0XXl9VRXWoRxHoALClaO+Oc8MLIFGsVEsQHiNeR44ckYoXK2TliuVU4wBpZqdgR//uuT7zOrOLH9U53kagA8BWIr07zg0vgESy0ruEahzEw2o1jjYx7XpjV96cAFJMf/4/XVIS8k1D7YlWMGmSdOzY0VxJDqpzkAgEOgDSjmocAKlipRpHw+N+eXlU4yBmVqtxxubnS1ZWFg9hQJpFCnY00B89ZkxSgh2qc5AoBDoA0ibSu+NU4wBIFH+1hJVJQoTHiJW+vmpqauSF1aujVuP0yu6V9Hf9AcSuurpaHikuDhnEarBzz+TJCb0ffXzWrIi92qzQe+XyFSvMDl5FoAMgpaK9O84NL4BEoXcJkkl7cWyu3hzxyATVOIBzaDirx/6fKikJe486eMjgFv9doT87cm7tbXbxW1y+jOPAINABkBrRqnG44QWQCEwSQjL5q3EWlJZGHWfPmxOAM/mDnckFk8yVpjTYGT1mdNz3rEWFhRGrRa2gOgd+BDoAkoZqHACpEkvvkszMTKpxEBMr1TjaSHXkqFHSuXNn3pwAXEDvY1euWBny+16D27sLCnxvDMTy/U51DhKNQAdAQkV7d5xqHACJ4q+WoHcJkkEf5iI17Ff+apy82/Kkffv25ioAN0lksJOI6hwNj5+dO9fs4HUEOgASItK749zwAkgkepcgmfbu3es7bhGpYSnVOID36N89ixYuDNs+4K6CgohVM/qzZVD/lk+kqtq0kTcocBqBDoC4RavG4YYXQKLQuwTJRDUOAKviDXaGDRkS9ueLVTpxq3jGDLMDCHQAxIFqHACpQu8SJJOVahx9gOrbrx/9KgA0oT8/HnvkkZAhjf69VDBp0uk3F3Q4yKhhw33rlqA6B8EIdABYEu3dcR6oACQK1RJIJn19acP+dRUVEV9fY8eNk5zcXBpoA4hIw5qnS0pC/jzRQHj0mDHyYFFR2J83VlGdg1AIdABEFOndcW54ASQSvUuQTPrQtX7duogNSanGARCv6upqeaS4OOykxZZ6uWYHb2CgGQIdAM1Eq8bhhhdAolitxtHwuEfPntzMIib+apwFZWURx9n3y8vjzQkALab30PrGxFMlJQkNdnRa4/gJ480OOINAB8BpVOMASBV6lyCZrFTj3Dlxgm/UcEZGhrkCAInhD3YmF0wyV1pmV92r3H8jJAIdwOOivTvOAxWARLFSLUF4jHhpw/6tW7ZErcYZOmyYdOvendcXgKTSUOf/3Npbjhw+bK7Eh+ocREKgA3hUpHfHueEFkEj0LkGy6APTnj17ZMnixbKhsspcbY5qHACptnbNmoRU6FCdg0gIdAAPiVaNww0vgESx2ruE8Bjx0GqcihcrZOWK5by+ANiOhs19c3Ja3EdH3+xgshUiIdABPIBqHACp4K+WoHcJksFqNY4eT+iV3Us6duxorgBAas2fNz9kT8p4cOQKkRDoAC4V7d1xHqgAJArVEkgmf8P+aK+vsfn5kpWVxTh7AGml9+DXZ15ndolBqINwCHQAl4nUq8J/w5uZmckDFYAWoXcJkklfXzU1NbKgtDTsOHtFNQ4Au0lkdU4gQh2EQqADuEC0ahxueAEkitVqHKolEA9/NU6kh6E+uTly+8CBvL4A2E4yqnMCEeogGIEO4GBWqnG44QXQUlRLIJmsvL50nP3gIUMl77Y8ad++vbkKAPby+KxZIXtWJhKhDgIR6AAOE+3dcR6oACSKlWoJwmPESxv21+6sjVqNM3LUKOncuTOvLwC2pn9n5tza2+ySi1AHfgQ6gANE61XBDS+ARImlWoLwGLHS4wjbt22T5eXlVOMAcJWiwsKIEx4TjVAHikAHsLFI1Tjc8AJIJKolkEz6+tq4YUPEowi8vgA4VSqrcwIR6oBAB7AZqnEApArVEkgmq6+vsePGSU5uLtMXAThWqqtzAhHqeBuBDmAT/l4VVOMASDaqJZBM2rB/x/btEV9fQ0cMl779+knXrl3NFQBwpnRV5wQi1PEuAh0gjaL1qvDf8PJABaClYqmW6NGzJ+ExYqKvr6rKSllQVhZ2nD3VOADcaNiQIWH/Xk0lQh1vItAB0iDS5BhueAEkEtUSSCZ9fa1fty7iUQNeXwDcSn8Gjho23OzSj1DHewh0gBSxWo3DDS+AlqJaAslk5fWl4+yHDhsm3bp35/UFwLXsUp0TiFDHWwh0gCSL1KuCByoAiUS1BJLF37A/2uvrzokTpHefPpKRkWGuAIA72a06JxChjncQ6ABJEK1Xhd7w3tStGw9UAFqMagkk05EjR6TixYqQDfv9eH0B8BoNuX8wZoztqnMCEep4A4EOkECRqnG44QWQKP5qiSWLF8uGyipztTmqJRAPXl8AENnaNWtkcsEks7MvQh33I9ABWshKNQ43vAASgWoJJJPV19fY/HzJyspi+iIAT9LQu29OTtifk3ZDqONuBDpAnCJNjuGBCkCiWK2W0Bu2rjd2JTxGTGJ5ffXK7iUdO3Y0VwDAm5xSnROIUMe9CHSAGETrVcEDFYBEoVoCyVRfXy+bqzfLEzNnmivN8foCgKacVp0TiFDHnQh0AAsiTY7hhhdAouiNYk1NjSwoLY3YaJFqCcSD1xcAtMzSJUvkoaIHzM55CHXch0AHCMNKNQ43vIB1gUc7rr32W9xQBKBaAslk5fXVJzdHRo4aJZ07d+b1BQAh6LPB9ZnXmZ1zEeq4C4EOECBaLwEeqIDYhXuYfH3fm57+PrJSLXHp5ZfJ4CFDJe+2PGnfvr25CkSnDx51dXW8vgAgQebPmx8xGHcSQh33INABTonUq8J/w0s1DmCdlbBiflmpZGdnm5137N27V2p31lItgaTQ19fGDRtCNuz34/UFALFxS3VOIEIddyDQgWdFq8bhhheInZWjHX5a8Va+YoXZuZveCG7ftk2Wl5dTLYGE4/UFAMnlpuqcQIQ6zkegA8+xUo3DDS9gXSxHhy6++KImoz5frtnh6u81qiWQTFZeX0NHDJe+/fpJ165dzRUAQCz0zaqcW3ubnfsQ6jgbgQ48wf/A+cLq1VTjAAkST1ih34uB4z7deBNhtVpi7LhxkpObK+3atTNXgeh4fQFAahUVFoacdOsmhDrORaADV4t0/MN/w9ujZ0+qcQCLEnG0I7BsWX/v+qoqVwSptbW1smP7dqolkBT6+lq/bl3EhwpeXwCQWG6vzglEqONMBDpwnWjHP7jhBWIXy9GOaJVueuzx5qybzE5kcfkyx34/asBVVVkpC8rKmh3h9KNaAvHi9QUA6eWF6pxAhDrOQ6AD17BSjcMNL2BdMo92DBsy5PS/U49lPTt3rm/tFFaqJe6cOEFu6taN8Bgxs/r66t2nj2RkZJgrAIBE8lJ1TiBCHWch0IGj6QNnXV0d1ThAAqXi6FB1dbWMH5dvds5ojqyVRVu3bIlYLaGTu4YOGybduncnPEZMeH0BgL0EvvkUL71f+q/Bg+Xg22/L/v37pe7VV1v870wFQh3nINCBI0U6/qE3vP3y8qjGAWKQ6qMdejTy2k5Xm519bxz0/+eePXtkyeLFIRuq+1EtgXjw+gIAe9I3t0YNG2528avatFE6duxodmdo9c8777wjH7z/vuzbt8+Wx7oIdZyBQAeOEe34Bze8QOzSeXTIzs2RtVqi4sUKWbliOdUSSDheXwBgb4mqzimeMcPsotO/Gz766CNfNc/u3bvlrQMH0l7NQ6hjfwQ6sL1o1Tjc8AKxsVKNk4rvreCz6elujmy1WkJvbrre2JXwGDGJ5fXVK7tXyHd0AQDJl+zqnFjo3x2HDx/2VfMcqD9wav1uyqt5CHXsjUAHtuR/4FxXUUE1DpAAdj3aYYfmyP6G6tGqJcbm50tWVpYrRqwjdaxW4/D6AoD00/ulH4wZ0+LKmGSHIPp3y6FDh+QvH3zgq+bZWVMT9u+YRCDUsS8CHbSINjbVtDhR3+CRjn9QjQPEzu5HO9LVHFlv2GpO3fyEa6juR7UE4sHrCwCcae2aNTK5YJLZxW9X3aspv6fyV/O8+cYb8t5778vrr78W8U28WBHq2BOBDuLm738xu2SO9B8wwFyNXbTjH9zwArGxWo2j31vpPjqk/18DmyM/XDxdRowcaXaJ56/G8ffuCYVqCcSL1xcAOJfek/TNyWlxpYvdgg9/Nc+f33rL14C5JdU8hDr2Q6CDuAQ2M433fGi0ahxueIHYOPVoR3Bz5Je2bvWtE8VKtYT+dwcPGSp5t+XZfnw67IXXFwC4g5Orc2Klb6j/9a9/9VXz6Dj1gwcPWq7mIdSxFwIdxCzw4UvF8kNLHzi3btlCNQ6QIP6HyRdWr3Zso1VtfD6o/5kqv0Q1R47UUN1P+/aMHDVKOnfuTHiMmOjrq3ZnbcRqHF5fAOAMiarOSXalcbJppalO2opWzUOoYx8EOrBMf9AtWrio2c3rgYNvm1Vo+s9FOv6hN7y3DxxINQ4QA7cd7QhsjhzrmM9A+o7T9m3bZHl5OdUSSDheXwDgTsE9/eKhP//XV1W57nlG/+579913fePUtZqn7tVXfX8HEurYA4EOLNFQZsrkyc0CmUgPXpGOf3DDC8TOX41j5WiH0yrdgsucYy1XtlKNoz+v+vbrR7UEYka1FwC4n75ZtuaFFyL+rI+kpX1FnUY/X5yqSD8CHUQVLsxRwcmslWocbniB2FipxnH695a++3N95nVmZ61k2Wq1xNhx4yQnN9f259lhL7G8vnr07MmbEwDgElZ+/gdza3UO7I9ABxFFCnOUP4mmGgdILKsPk2763np81qzT74rpny1cc+RIDdX9/NU4iejFA2+JpdqL1xcAuJuVew7lteoc2AeBDsLSkOaRGTPChjnqwYd/5hs5HuqBk2ocIHZePtqhf/ZwzZE14NKfNeEaqit/tQTVOIgVry8AQCSR/p7Qvx+ozkG6EOggJA1zRo0YEfbGNhxueIHYebEaJ5zg5shaBRHtnbE7J06Q3n36SEZGhrkCWEO1FwAgFqHaSyRqOicQDwIdNKP9Ou7Mz48pzOGGF4gdRzuaC26OHI5O8Bo6bJh0696d8BgxsVKNw+sLABCNvgG+dcsWR48ph/MR6OA0TZxXr1olDxU9YK5YM/EnP5YJEydSZghY4H+YXFdREbEax6uVbvr5CWyOHIxqHMTLSjUOry8AAOAkBDrw0aqcB4uKwj5gRqM9PaYVFtL0GAiDox3WBTZHVlRLIF6RGvb78foCAABORaADWbpkScxVOaFoVcGMRx/l2BVgWD3a0S8vj75TAYKbI69au4aKCVgWqr9BKFTjAAAApyPQ8TArU6ziMWXqVBk9ZjRHsOBZHO1ouVt69Dgdgunn6t777vOtgXCsVuOMzc+XzMxMAlQAAOB4BDoeZbXxaLw4ggWv8TfGo9FqYgRXDu6qe5XPGZqxWo2jbzT0yu4lHTt2NFcAAACcj0DHY5JVlROKHsFaX1VFpQ5ci6MdyRPcHHl2yRzpP+DMMSx4m/Z921y9WZ6YOdNcac5fjZOVlcXfQwAAwJUIdDwkUlWOhi83nrrp7dSpk1x40UVy2WWXSYcOHbgJBkKg0WpqFBUWnj62pp/P8hUrfGt4kwaoNTU1sqC0NGIDf6pxAACAVxDoeEBgVY4+FH39yiulS5cu8h8XXigXXHABN72ABRztSD3tRTRq2HCzozmyV1mpxtFjviNHjZLOnTvzRgQAAPAMAh0P0Ikx55xzDg+YQBz8D5NWGq1ytCPxaI7sTVaqcbSydPCQoZJ3Wx792gAAgCcR6ABAEI522AfNkb1F34DYuGGDPDd3nrnSHNU4AAAAjQh0AMCwerTj9oEDqcZJkeDmyPPLSiU7O9vs4Ab6Nd6+bZssLy+nGgcAACAGBDoAPI2jHfZHc2R3slKNM3TEcOnbrx/VOAAAACEQ6ADwJH2YrN1ZS6NVBwhujly1aSPH3BzKajXO2HHjJCc3l+N1AAAAERDoAPAMjnY4V2BzZO1dNH7CeN8azqCh3Pp1605XWoXir8bp2rWruQIAAIBICHQAuB6NVp1v/rz5TaqpXt/3Jl8nm9MAtaqyUhaUlYWdEEc1DgAAQPwIdAC4Ekc73OXIkSNyc9ZNZkdzZDuzUo2jI+hv6taNahwAAIAWINAB4Cr6MLlj+3ZLjVZ5mHSWH02cKBsqq3xrmiPbi5VqHP2aDR02TLp1706ACgAAkAAEOgAcj6Md3kBzZHvRCXF79uyRJYsXnw7aQtFqnN59+khGRoa5AgAAgEQg0AHgWDRa9RYNEPrm5NAcOc30+FvFixWycsVyqnEAAADSiEAHgKNwtMPbaI6cHlarcTRk63pjV6pxAAAAUoBAB4Dt+R8mrTRa5WiHuwU3R15cvozqqySyWo0zNj9fsrKyCNcAAABSiEAHgG1xtAOhBDZH1nHzz86d61sjMTRArampkRdWr45ajdMruxd9jAAAANKEQAeArdBoFdEEN0d+uWaHtG/f3uwQr/r6etlcvbnJkbZgVOMAAADYB4EOAFvgaAes0tDv2k5Xmx3NkVvCX42zoLRUdr+yy1xtSifEDR4ylGocAAAAmyHQAZA2VqtxONqBYIHNkTVwWF9VRcgXAyvVOHqcbeSoUdK5c2c+twAAADZEoAMg5TjagZbS11DOrb3NjubIVuiEuO3btsny8vKo1Th5t+VxjA0AAMDmCHQApISVox2KahxYNWzIkNOvJZojh7d3717ZuGGDPDd3nrnSHNU4AAAAzkOgAyCpONqBZKmurpbx4/LNjubIgaxW44wdN0569OzJ5w0AAMCBCHQAJJw+TNbV1VlqtMrRDsSL5sjNWanGGTpiuPTt148jagAAAA5HoAMgYTjagVSjOXJjgFpVWSnrKiqiVuPk5OZKu3btzFUAAAA4GYEOgBah0SrSycvNkWtra2X9unWyfOkyc6U5qnEAAADci0AHQFw42gG7CGyOrK+54hkzfGs38lfjLCgrk0MH3zFXm9IJcf3y8qjGAQAAcDkCHQCWxdJolYdJpEpwc+Rdda+67rVnpRrnzokTpHefPpKRkWGuAAAAwM0IdABExdEO2Flwc+SHi6fLiJEjzc65jhw5IhUvVsjKFcsjVuMMHTZMunXvToAKAADgMQQ6AEKycrSDahzYxeOzZp0+/qevy5e2bvWtnUbDqT179siSxYtlQ2WVudoc1TgAAAAg0AHQBEc74ETa02lQ/wFm57zmyFTjAAAAIFYEOgB8D5Nbt2yJ2miVh0nYmdOaI1utxpkydar0yu4lHTt2NFcAAAAAAh3AszjaAbdZu2aNTC6YZHb2bY6so9Y3V2+OWo0zNj9fsrKypHXr1uYqAAAAcAaBDuAxHO2AW2nfp+szrzM7ezVH1gC1pqZGFpSWhp0Qp6jGAQAAgFUEOoAHxHK0o+uNXanGgWPZrTmyvxrniZkzzZXm+uTmyO0DB1KNAwAAgJgQ6AAuZrUah6MdcAs7NEe2Uo2jYdPgIUMl77Y8ad++vbkKAAAAWEegA7gMRzvgdYHNkbUH1L333edbJ5uGSbU7a6NW44wcNUo6d+5MgAoAAIAWIdABXMLK0Q6qceAFqWyOrH17tm/bJsvLy6nGAQAAQEoR6AAOxtEOoLng5sizS+ZI/wFnjmElglbjbNyw4XS/nlCoxgEAAEAyEegADmS10SoPk/CqosJCWb50mW+tlWnlK1b41i1htRpn7LhxkpOby4Q4AAAAJBWBDuAQHO0ArKutrZVRw4abnciqtWvint6m/64d27dHrMYZOmK49O3XL+UNmAEAAOBdBDqAzXG0A4jPLT16nJ7uFmtzZA1QqyorZUFZWdgJcVTjAAAAIJ0IdAAbiuVoR4+ePanGAUJYumSJPFT0gNlZa46s1Tjr1607fVwrFA2HburWjWocAAAApBWBDmAjVqpxONoBWGO1ObKVahztwzN02DDp1r071TgAAACwBQIdIM042gEkT7jmyDohbs+ePZaqcXr36RN3/x0AAAAgWQh0gDSxcrSDahygZYKbI88r/aW8deAtWbliOdU4AAAAcDQCHSCFONoBpF5gc+RIqMYBAACAkxDoAClgtdEqD5NA4gU3Rw6kAerY/HzJyspiQhwAAAAchUAHSIHHZ80K2eiYahwg+YKbI6spU6dKr+xe0rFjR3MFAAAAcJbPmV8BJIlOrjp48KDZNdJqnFVr1/gatOrUHcIcIHn0+6tPbo7ZiWR+5zoZP2E8YQ4AAAAcjUAHSLI/vv66bKisMjuRqk0b5d777uNoFZBCI0eNMiuRut+/KvX19WYHAAAAOBOBDpBkOmo80DvvRG/OCiCxOnfu7Bv/77e5erNZAQAAAM5EoAMkmR730PHjfgtKS80KQKpow+PBQ4aancgTM2fKiRMnzA4AAABwHgIdIAX69utnViK7X9nFcQ8gDfJuyzOrRjU1NWYFAAAAOA+BDpACHPcA0q99+/ZNmiNTLQcAAAAnI9ABUoDjHoA9BDZHploOAAAATkagA6QIxz2A9KNaDgAAAG5BoAOkCMc9gPQLrpZbuWI51XIAAABwJAIdIIU47gGkX2C13KGD78iePXvMDgAAAHAOAh0ghTjuAaRfcLXcksWLzQoAAABwDgIdIIVojgzYw+0DB5qVyIbKKjly5IjZAQAAAM5AoAOkWHBzZI57AKmXlZVlVo0qXqwwKwAAAMAZCHSAFOO4B5B+Wi03ZepUs6M5MgAAAJyHQAdIg8DmyBz3ANKjV3Yvs6I5MgAAAJyHQAdIA22OHIjjHkDqdezYUbrccL3ZUS0HAAAAZyHQAdKA4x6APYzNzzcrquUAAADgLAQ6QJpw3ANIv+DmyFu3bDErAAAAwN4IdIA04bgHkH7B1XILysrMCgAAALA3Ah0gjTjuAaRfcLVcbW2t2QEAAAD2RaADpFHwcQ+aIwOpF1wtt37dOrMCAAAA7ItAB0gjmiMD9jB02DCzElm+dJkcPXrU7AAAAAB7ItAB0ozmyED6deve3awaVVVWmhUAAABgTwQ6QJp99NFH0rZdO7PjuAeQDu1OfQ/eOXGC2dEcGQAAAPZHoAOkgR7nWLpkidzSo4eMGjZcjgUc7+C4B5Aevfv0MSuaIwMAAMD+CHSAFNIHxKLCQrk+8zp5qOgB30NjKBz3AFIvIyOD5sgAAABwjLMaTjFrAEmgo8i3btniO8IRLsDRh8hzvvQlefmlLb79pZdfJi9t3epbA0idtWvWyOSCSWYnsqvuVd9xLAAAAMBuqNABkkAnVWk1zo8mTpSbs24KW42jPTtWrV0j5StWyF13322uctwDSBeaIwMAAMApCHSABNJqnPnz5kvfnBxfb5wNlVXmI2doNc7skjm+d/7vve8+3zEPxXEPIP2CmyOvq6gwKwAAAMBeOHIFtJBW4+io8SWLF4cMcPymTJ3qG1HesWNHc6U5jnsA6VddXS3jx+Wbnfiq6PzBKwAAAGAXBDpAnOrr62Vz9WZZuWJ5xN44Y/PzJSsrS1q3bm2uhqfTrbRhst/DxdNlxMiRZgcgWTSYrampkQWlpbL7lV3maiOt2NFqOgAAAMBOCHSAGER66AtkpRonnMdnzZLn5s7zrWmODCTX3r17ZeOGDae/50Lpk5sjz86da3YAAACAPRDoABb4q3GemDnTXGlOH/puHzjQcjVOOPqAOaj/ALPjuAeQaFoJt33bNlleXh42mNUwdfCQoZJ3W560b9/eXAUAAADsg0AHCMNKNU6yHvqGDRly+r/JcQ8gMaxU4wwdMVz69usnnTt3blEwCwAAACQbgQ4QRB/6anfWRq3GGTlqVNIe+miODCSG1WqcsePGSU5uLt9nAAAAcAwCHeAUux3BCG6OrGPO+w84cwwLQGS1tbWyY/t2S9U4Xbt2NVcAAAAA5yDQgadZbYiazGqccIoKC2X50mW+tU7LKl+xwrcGEJoGoVWVlbKgrCzs5DmqcQAAAOAWBDrwHKccwdAKg1HDhpsdzZGBcPR7Zf26dacD0FC0F9VN3bpRjQMAAADXINCBZzjxCMYtPXqcrjSgOTJwhpVqHK1sGzpsmHTr3p1qHAAAALgOgQ5czelHMJYuWSIPFT1gdjRHhrfp5Lk9e/bIksWLZUNllbnanIafvfv0oaINAAAArkagA1eycgTDCQ1RaY4MiBw5ckQqXqyQlSuWU40DAAAAGAQ6cA23HsGgOTK8iGocAAAAIDICHTia/6HPSkNUpz700RwZXmK1Gmdsfr5kZWWldPIcAAAAYCcEOnAkrx3BCGyOPGXqVBk/YbxvDbiBBrM1NTXywurVEatx9LXfK7uXdOzY0VwBAAAAvItAB47h5SMYwc2RX9/3JpUJcLz6+nrZXL1Znpg501xpjmocAAAAIDQCHdgeRzCaN0eeX1Yq2dnZZgc4h78aZ0Fpqex+ZZe52pROnhs8ZCjVOAAAAEAEBDqwJavVOF46gvGjiRNPfy5ojgynsVKN0yc3R0aOGiWdO3emGgcAAACIgkAHtsIRjPCCmyNXbdpI9QJsTSvL6urqLFXj5N2WJ+3btzdXAQAAAERDoIO0s3IEQ3m9Iap+nvrm5NAcGba3d+9e2bhhgzw3d5650hzVOAAAAEDLEOggbTiCEbv58+Y3+XzRHBl2odU427dtk+Xl5VTjAAAAAClAoIOU4ghGy2iD6JuzbjI7miMj/axU4wwdMVz69usnXbt2NVcAAAAAtBSBDlKCIxiJQ3NkpJsGs1WVlbKuoiJiMDt23DjJyc2Vdu3amasAAAAAEoVAB0nDEYzkCG6O/HLNDj53SAl97a1ft06WL11mrjRHNQ4AAACQGgQ6SDiOYCQXzZGRSv5qnAVlZadfc8GoxgEAAABSj0AHCWG1GoeHvsQIbI6sn9f1VVUcU0NCWanGuXPiBOndp49kZGSYKwAAAABShUAHLcIRjPQIbo68uHwZn1+0mL6utm7ZErEaR/s2DR02TLp1704wCwAAAKQRgQ5ixhEMexg2ZMjpaihtKP3s3Lm+NRALPcK3Z88eWbJ48elm26FQjQMAAADYC4EOLOMIhr1UV1fL+HH5ZkdzZMRGq3EqXqyQlSuWhw1m/R4uni4jRo40OwAAAAB2QKCDiDiCYV9aWXFtp6vNjubIiM5qNY6+ll5//fVTv6fSt2c8PgAAAGA/BDpohiMYzkFzZFhhpRpHQ5ux+fmSlZXlew0Fj8dftXYN3+sAAACAjRDo4DSrD31U49hHfX295Nza2+xojowzNJitqamRBaWlYSfPKa3G6ZXdSzp27GiunHFLjx6nfxZogHvvfff51gAAAADSj0DH42I5gtH1xq68Q29DNEdGIA35NldvPl25FUpwNU44S5cskYeKHjA7kV11rxLkAgAAADZBoONR8RzBgD3RHBlWqnH0SN7gIUMl77Y8y68PnWh3feZ1Zicyu2SO9B8wwOwAAAAApBOBjock4ggG7Ee/roHNkZlI5B179+6V2p21EatxtGpr5KhR0rlz57iC2aLCwtOT7WiODAAAANgHgY4HJPIIBuwpuDnyS1u3+tZwH62a2b5tmywvL09oNU44NEcGAAAA7IlAx6WSdQQD9kRzZPfTapyNGzbIc3PnmSvNtbQaJ5zA5siMxwcAAADsgUDHZaxU4yTroQ/pFdgceeiI4VI8Y4ZvDeeyWo0zdtw4ycnNTVrD4uDmyK/ve5OfHQAAAECaEei4QKqPYMCe1q5ZI5MLJpkdE4mczEo1joZ2ffv1S0klVnBz5PllpZKdnW12AAAAANKBQMfB0nkEA/YT/NBNc2Rn0a9fVWWlLCgrCzt5LhXVOOH8aOJE2VBZ5VvTHBkAAABIPwIdh4nlCEaPnj2pxvGYx2fNOh3w6euA5sj2p02H169bd3qSVCiprMYJJ7g5ctWmjUzCAwAAANKIQMch7HYEA/akr5NB/QeYHc2R7cpKNY5WwQwdNky6de9ui6Nz2mi9b04OzZEBAAAAmyDQsTG7H8GAPdEc2b6sVOPcOXGC9O7Tx5ajwQPH4yuaIwMAAADpQ6BjQ045ggF7ojmyvRw5ckQqXqyQlSuWO6YaJxz9s9ycdZPZ0RwZAAAASCcCHZtw4hEM2JO+lgKbI88umSP9B5w5hoXk0+NJe/bskSWLF59uJByKnatxwqE5MgAAAGAPBDpp5vQjGLCnwObIPHSnjtVqnLH5+ZKZmenIYJbmyAAAAIA9EOikgZuOYMB+tELnl889J2XP/dJcEVm1dg2BYJJYrcbRJsK9sns5PvygOTIAAABgDwQ6KeLmIxiwh0jVXvq6uve++8wOiVBfXy+bqzc3aRIczF+Nk5WV5armwYHNkbUx+/qqKpojAwAAAClGoJNkXjiCgfTRapzt27bJUyUlYV9ffjRHbjkNZmtqamRBaenpSWKhuKUaJ5zg5siMxwcAAABSj0AnCbx2BAOpt3fvXtm4YcPpPjmhjBozRhYvXGh2NEduCSvVOOqOIYPloZ/9zBPVKoHj8fvk5sizc+f61gAAAABSg0Angbx8BAPJ56/GWV5eHrY6JLj3UlFh4ekjWPoxmiNbZ6UaR48bdehwiezcscNcEXl935ue+N6urq6W8ePyzU7k5Zod0r59e7MDAAAAkGwEOi3EEQwkm5VqnHC9l4InEtEcOTorn2+tSBk5apR07tzZF7QFHj+aX1Yq2dnZZude+rPv2k5Xmx3NkQEAAIBUI9CJk5VqHH3ou33gQKpxEDN9WNZQIVI1jlaHjB03TnJycyP2xrmlR4/T/XVojhyaleon/XwPHjJU8m7La1aJ8qOJE08fr/RSJRTNkQEAAID0IdCJgdUjGOEe+oBorASFQ0cMl779+lluQrt0yRJ5qOgBs6M5ciAr1Tj+z7dW44QLK4Iroao2bfRENZ6+XnNu7W12NEcGAAAAUolAx4JYj2DwDjViYTUotFKNE4pWn1yfeZ3ZeedIUDhWq3Fi+Xzr17BvTs7pSigvHT+iOTIAAACQHgQ6YbT0CAYQTTKqccKhOXJjFc2O7dstVePE8/n26vEjmiMDAAAA6UGgEyRRRzCAUGI5tjd4yOCEHY3y6pEgDWarKitlQVnZ6eqZYC2pfgp05MiRJs2RvXL8SF/Tgc2RHy6eLiNGjjQ7AAAAAMlCoHNKMo5gAIH0Yb/ixQpZuWJ52GAh2cf2Apsju/1IkAZY69etO12VFIo2iL6pW7eEhi6BzZG9dPwouDrppa1bfWsAAAAAyePpQCfZRzDgbVq5sGfPHlmyePHph/xg/mqcVBzbC3zoVq/ve9NVFWZWqnH0uNnQYcOkW/fuSQlmgyuhvHL8iObIAAAAQOp5LtBJ5REMeJMdqnFCCT4S5IbmyFZCM6XVOL379JGMjAxzJTmCjx95tTmyBuHFM2b41gAAAACSw3OBTmBz2GDJOIIBb7AaLOgDfjqbaAceCXJyc2QroVmyq3HC8Wpz5LVr1sjkgklmx3h8AAAAINk8FehodY5W5gQesUrXQx/cweoxn7H5+ZKVlZX2B3snN0eOJTTremPXpFfjhOPV40f6vRA4Hp/myAAAAEByeSrQCXzn/Ett2shvli5J20MfnM1K010NFnpl97JVYKKhSN+cnNPhkxOOBFmtxrFLaKYCjx95qTny47NmnQ7MaY4MAAAAJJenAh0dST6o/wCzE1m1dg2BDixzWjVOOE5ojqzBk453f2H16qjVOHYLzVR1dbWMH5dvdt5pjhz8M5bmyAAAAEDyfM786gka3ugDt9/GDRvMCghPq3G095IeJ3mo6IGQYY4GC3p8SXvSaKNhO/dM0R4+gTQ4sQs9rqSBkzYW1kAkVJij38Pa0FmDKK0usuORMQ30AmmFkRcE/4zVKjYAAAAAyeG5pshLlyzxPZT7uW10MxJDq3G2b9smT5WURKzGcWr/pcDmyOk+EuSvxllQWnr6mFIw/3h3O1bjhENz5EY0RwYAAACSw3OBTvDoZo4EIJAeGdHKrcDG2cFSNQI7mYKbI6fjSJBW42yu3tzk+FewdIx3TxSaIzeiOTIAAACQHJ4LdJSdqhOQfv5qnOXl5WErRJxcjROKVsXosSa/VDVHtvK59lfjpHO8e6LQHLnxe8ep4/EBAAAAO/NkoBPcsJQjAd7klWqccFJ5JMjK59rJ1Tjh0By5EQ3oAQAAgMTzZKATfCRAG6xqI1u4n1amaLAQrUJk7LhxkpOb6+qgL9lHgrxWjRNKcCWUl44fBVYnaTB67333+dYAAAAAEsOTgY7SqUXLly7zrTkS4H5W+rUMHTFc+vbr56meSsk4EmSlGsdLn+vgSqiXtm71rd0uuAE9lZAAAABAYnk20LFDU1gkl9XpSV6oxgknUUeCtBqnqrJS1lVU8LkOQnPkRrNL5kj/AWeOYQEAAABomc+ZXz1H+3QE2rpli1nB6fQBWqsi9KiLhhWhAgatENEHa62W0CMwXq0cyMrKMqtGFS9WmJU1GoxqtZs+uGs1Bp/r5nTMulYB+q1ft86s3E2/zvq199OjdwAAAAASx7MVOsqrRyHcyGo1jvZrGTxksGcDnFBibY7sr8ZZUFYmhw6+Y642pQFGv7w8z1Y+BVu7Zo1MLphkdt45fhRcCUlzZAAAACBxPB3oMInF+Y4cOeKrKlm5YnnYcMGN05MSyeqRIH041+oSf++pUNw8Fawlgo8feak58i09epz+3qQ5MgAAAJA4ng50VODDxpSpU2X8hPG+NexLq3H27NkjSxYvlg2VVeZqU/5qHLdOT0q0wObIekymeMYM31oDMz2OGK0aZ+iwYdKte3eqcSJ4fNas042ivVQRSHNkAAAAIDk8H+gEP2y8vu9Nqjhsimqc5Alujqyj/F9YvTpsYKaoxolNcEUgzZEBAAAAtITnAx0NCW7OusnsvPOQ5RRWqnGUVldRjRM//TxrE+loqMZpmXCVUG6njbP9R/X0NVS+YoVvDQAAACB+np1y5acBgBcn0Nidvquv1VN9c3J8TVVDhTn6ddNKEq2q0qNyhDnx02omrbgJRwOzqk0bfQ/iWl1BmBMfDcP8NODQ17kX9O3Xz6zEF2hp3yYAAAAALeP5Ch0VfNyEHg/pY6XxroYLvbJ7+cZBI3GCjwRpYDY2P9832pzja4lBc2T6lQEAAACJQqBzSvBDllZ9ZGdnmx2STT//VsZgEy4knx4JurlHTwKzJPJqc+TA8fiKfmUAAABAyxDoGD+aOPH0sR5trPvs3Lm+NZKHahx4kVebIwf3KyM4BwAAAFrG8z10/HQykp8GO/rwgcTTapy1a9b4jl9ob5xQYY5W4+gkHD36pscyCHPgJjoVLLBv147t283K3bTHlYblfgtKS80KAAAAQDyo0DGCp/x4qbdFKmhVwsYNG04fNQmFMdjwCg01JxdMMjvv9O3SqjwNcv200TaBLQAAABAfKnSM4Ck/6yoqzArx8lfjaF8WPWISKswJrMa59777CHPgCTr2PdD2bdvMyt06d+7s6xvkt7l6s1kBAAAAiBUVOgGCe1usWruGgCEOVOMA0QU2R9ZgU0fCewHNkQEAAIDEoEIngIYLge8e1+6sNStEo0fWolXj6OdWj7JRjQOIL9D02/3KLl8Q6gV5t+WZVaOamhqzAgAAABALAp0gg4cMNSuRlSuW+4IKhFdfX+97x137D2lPEH0wDTZ0xHDfJB8dz6x9ibzQKwSIJjhA1qo2LwhujvzC6tVmBQAAACAWHLkKEjxa1ysjhWOhIZe+q65TakIFOEofVMeOGyc5ubkEOEAYS5cskYeKHjA77zZHfrlmhy/oAQAAAGAdFTpB9KHCiyOFrQisxhk/Lp9qHKCFNPAM5NXmyBUv0oQeAAAAiBWBTghDhw0zK/H1gtFpTV6l1TjV1dW+3jg5t/Zu0szUTx/Mpkyd6qsuKJ4xg4omwCINPDUE9VteXm5W7qZNkDneCgAAALQMgU4IwSOF6+rqzMo79OiZVuP0zckJW42jfTC0Gmd9VZWMnzCeahwgDn379TMrbzVH7pXdy6xEDh18R/bs2WN2AAAAAKwg0AlBgwkvNu3Ud8i1t8WPJk709RHSahx90Arkr8bRnhfPzp3rq8Zh5DAQP/0e8mJz5I4dOzY53rpk8WKzAgAAAGAFTZHD8FLTTq3G0R4WeuwhOMDx04Br5KhRvt4XBDhAYnm1ObIe59QKQD+aIwMAAADWUaEThgYXgbZu2WJW7mClGkdRjQMkn1ebI2dlZZlVI5ojAwAAANYR6IShwcWdEyeYnci6Cnc8aGiDZ60G0N44WoG0obLKfOQMPQYxv6xUXt/3pq83Du+YA8nl5ebIGhr70RwZAAAAsI5AJ4KbunUzq8ZmpTq226m0GqeosFCuz7zOd7QjXDVO1aaNUr5ihWRnZ1ONA6QQzZFpjgwAAADEgkAnguBmpZurN5uVM/ircW7p0cNXjbN86TLzkTOCq3G0USmA1Av+eVO7s9as3I3myAAAAEB8aIochY7u1v4ySh+2Xtq61be2M63GWb9uXcgAx0+rcfSdcQIcwD6CmyNr0OqFSrng5sheaQoNAAAAtAQVOlEEHwfQsMSOtBpn7Zo1UatxZpfM8T0sUY0D2E9wc+Samhqzcrfg5shVlZVmBQAAACAcAp0ogo8D7Ni+3azsQftsPD5rlq83zuSCSSF742hz51Vr1/h64/QfMIB3vgGb0u/NPrk5ZieyoLTUrNwtuDnygrIyswIAAAAQDkeuLLDbMQitxtGxxjoJR5unhqIh1NBhw6Rb9+4EOICDaBWgVtn5aaNyL1TTaTg9qP8AsxNZXL7M11cIAAAAQGhU6Fhgl2MQwdU4ocIcqnEAZ+vcubOjm7HHKyMjo0k1pPYBAwAAABAegY4FwccgXli92qyS78SJE77eOMOGDPG9e/3c3HnmI2fow9/DxdN9vXHuve8+34MRAGfS6r/BQ4aanfiasuvPAS/QqkI/7QOm1YgAAAAAQiPQsej2gQPNSmRDZVXSHzTq6+t9E7au7XR12GqcoSOG+44l6OStESNHUo0DuETebXlm1cgrzZH1iGggmiMDAAAA4RHoWJSKKSz6LryO79VqnJxbe58elx4osBqneMYMekwALtS+fXtPNkfWUFqPjfrRHBkAAAAIj0DHIj0GEfigsa6iwqxaLrAaZ/y4fKpxAMjIUaPMSnw/E/TnhBf07tPHrMQ3tU+bRAMAAABojkAnBjd162ZWjQ9YR44cMbvYWa3G0VG+VOMA3kNz5EY0RwYAAABCY2x5jG7p0cP3rrHSsGX8hPG+tVUaAlW8WCErVyw//e8Jpkct9N15faBL53h0AOmllXuBYe/r+970xM8EbQSvvcP8NNSmKhEAAABoigqdGAVOn9FQxgqtxtFjAz+aOFFuzrrJ94AWHOb4q3Fertkhz86d66vGIcwBvI3myI22b9tmVgAAAAD8CHRi1PXGM8eeNJTZu3ev2TWn1Tj6DnvfnBwZNWy4bzpWMK3G0d4466uqfNU+2gwVAFRwc+QXVq82K3cLbo68vLzcrAAAAAD4EejEKLi/w8YNG8yqkZVqHEU1DgArApsjayjckt5dThLcsyxSeA4AAAB4EYFOHPrlnTkG8dzceb4Q5+jRo7J0yZKI1TgaBM0vK/X1waAaB4AVwc2RtQeXF2jQHfjnDg7PAQAAAK+jKXIc9B1yrb7x06Am1KhxP63G6ZXdSzp27GiuAIB1gc2RNeTQI5peqOrTkPyhogfMjubIAAAAQCAqdOIQ3NciVJgTXI1DmAMgXoHNkfUI5549e8zO3XJyc82qEc2RAQAAgDMIdOJ0+8CBZtWUVuNUbdoo5StWSHZ2Nr1xALSYhsiBvbuWLF5sVu6m1ThDRww3O5ojAwAAAIEIdOKUmZlpVo3VOLNL5viOA1CNAyAZxubnm5W3miP37dfPrGiODAAAAAQi0ImTvnOsIc6qtWt81Tj9BwygtwOApMnKyjKrRjRHBgAAALyNQKcFNMTRMeYAkGx6fFOPdPqtXLHcN2HPC8aOG2dWZyYLAgAAAF5HoAMADqHT8vy83By5pqbGrAAAAADvItABAIfQ/lw0RxZZUFpqVgAAAIB3EegAgIPQHLmxOXJ9fb3ZAQAAAN5EoAMADuLV5sidO3du0hx5c/VmswIAAAC8iUAHABzEq82R9c89eMhQsxN5YuZMmiMDAADA0wh0AMBhvNocOe+2PLNqRHNkAAAAeBmBDgA4THBz5PXr1pmVu7Vv31765OaYHc2RAQAA4G0EOgDgQIHNkZcvXSZHjx41O3cbOWqUWdEcGQAAAN5GoAMADhTcHLmqstKs3I3myAAAAEAjAh0AcCBtEnznxAlmJ7KgrMys3I3myAAAAEAjAh0AcKjeffqYVWNz5NraWrNzt+DmyF5pCg0AAAAEItABAIfKyMigOfIpSxYvNisAAADAOwh0AMDBhg4bZlbebY68obJKjhw5YnYAAACANxDoAICDdeve3awaeak5cqCKFyvMCgAAAPAGAh0AcLB27dp5tjnylKlTzU5k5YrlNEcGAACApxDoAIDDebU5cq/sXmbV+OemOTIAAAC8hEAHABzOq82RO3bs2OTPTXNkAAAAeAmBDgC4gFebI4/NzzcrmiMDAADAWwh0AMAFvNocOSsry6wa0RwZAAAAXkGgAwAuENwceV2FN4INmiMDAADAqwh0AMAlApsj735ll+zdu9fs3I3myAAAAPAiAh0AcIng5sgbN2wwK3cLbo7slabQAAAA8DYCHQBwkX55eWYl8tzceZ5sjuylptAAAADwLgIdAHCRnNxcs2q0fds2s3K34ObIXmkKDQAAAO8i0AEAF9HmyENHDDc7keXl5WblbtocObAp9IKyMrMCAAAA3IlABwBcpm+/fmblrebIgU2htTlybW2t2QEAAADuQ6ADAC7TtWtXufTyy8zOO82Rg5tC0xwZAAAAbkagAwAuNHbcOLPyVnPkocOGmRXNkQEAAOBuBDoA4EJebY7crXt3s2pEc2QAAAC4FYEOALiQV5sj65+b5sgAAADwAgIdAHApmiM3Nkf2yp8bAAAA3kKgAwAuRXPkRl75cwMAAMBbCHQAwMVojuytPzcAAAC8g0AHAFwsuDlyXV2dWblbcHNkrzSFBgAAgHcQ6ACAiwU3R15QWmpW7ubVptAAAADwDgIdAHC54ObI9fX1ZuduXm0KDQAAAG8g0AEAlwtujry5erNZuZtXm0IDAADAGwh0AMADBg8ZalYiT8ycKSdOnDA7d/NqU+hk4fMHAABgHwQ6AOABebflmVWjmpoas3K34KbQNEduGW2q7ZUjewAAAHZHoAMAHtC+fXvpk5tjdvZtjqyVQxoYhPtfrGiOnFgH6g/Im2+8YXYAAABIp7MaTjFrAICL1dbWyqhhZ8KNqk0bpWPHjmaXehre7NmzR/781luyb98+Wb50mflIZNoX58asLOnSpYtcfc01Uf8MwX/uVWvXSEZGhtkhFkWFhb5fi2fM8P0KAACA9CHQAQCP0AClb06OHDr4jm8/ZepUGT9hvG+dKv4QZ8f27b6eNomgAY/2COqV3StsuHNLjx5p/XO7xZWXX+H79cDBt32/AgAAIH0IdADAQ+bPm+9riuz3+r43pXXr1maXPNpMt6qyUhaUlZ0OVpKhyw3Xy10FBb4JV4GWLlkiDxU9YHap+3O7yZEjR+TmrJt863RXdwEAAIBABwA8JfChXM0vK5Xs7GyzSzytyNFx4ZMLJpkrzWkIc3OPnnJlxyvlsssuk3POOcfX8yeY9tA5fvy4HHz7bdm9e3fEI1r67/zptGmnj1ZpoHR95nW+tUr2n9uN9u7dK4P6D/CtZ5fMkf4DGtcAAABIDwIdAPCYH02cKBsqq3xrDT7KV6zwrRNNA4BJd98dsiJH/7tj8/OlU6dOIcMbq/S/UbuzVlauWB7yv6MNke+ZPNnXHDlVf263WrtmzelgTj+v9NEBAABILwIdAPCYZDdH1qqcXzzzTMgeORoEjB4zJuHHdfS/qaPYdXrX7ld2mauNtMfOjEcf9a3t1BTaabQhcmBVFMfWAAAA0oux5QDgMZ07d/aFHH6bqzebVcvpka4pkyc3C3N0ZLoGKFrVkYwQRYMFPUKlVTd6HCjwz6eVOxrk/H7375P25/aCtw4cMKtG+/fvNysAAACkA4EOAHiMhh86FcpPjytphUtLaZgzasSI08ealAYo2q/m2blzU1YNo71d1ldVyZ0TJ5grjZ568kn5/Oc/b3biaw6diD+3F+jnKbjy6Y+vv25WAAAASAcCHQDwoLzb8syqsYJFR4m3hD/MCexjo1U5i5cuTUvzYQ2t7r3vPllcvqxJVc6fD7xlVo30mBaiO3z4sFmdsXPnTrMCAABAOhDoAIAHaSNiDVz8lixebFaxCxXmaHXME7Nnt6jhcSLo+HINlQJDnUDacwfRvfnGG2Z1hlZiUeEEAACQPgQ6AOBRtw8caFaND+cazMQqVJgzZepUX3WMXRrmaqj0/OrVTQIsPz1GpOPQEdl7771vVk3RRwcAACB9CHQAwKOysrLMqlHFixVmZY1WZzwyY0azMGf8hPFmZx86tlwrhnRceTCaI0f3+uuvmVVT9NEBAABIHwIdAPAoraDRAMYv1ubIixYuatIAWY9Z2THM8dM/7xNPPtns+NWS3/yGo0NRBH6dA9FHBwAAIH0IdADAw3pl9zKr2Joj79271zclyk+PM/34Jz8xO/vS41fPBfXNef+99+SVV14xOwSLdBSPPjoAAADpQ6ADAB6mo8QDjyFZaY6sD/CT7r7b7BpHk08rLLRNz5xo9M88u2SO2TWa9diZcApNHTp0yKxCo48OAABAehDoAIDHjc3PNytrzZE3btjQpG/OtKKitE+zilX/AQPkW9/ubHYi+//0J3kjxCQniPzlgw/MKrTanbVmBQAAgFQi0AEAj4ulObJW5zxVUmJ2jUetsrOzzc5Zfj59ulk1WlexzqwQaPfu3WYV2stbt5gVAAAAUolABwA8LpbmyMHVOQWTJpmV83zzm9+U4SNHmp1I6fz5cvToUbOD386aGrMKTUe/83kDAABIPQIdAIDl5siB1TlDRwz39aNxsoJ7mgZSK1esNCsoDWoCA7xw6urqzAoAAACpQqADALDUHLm2trbJw/1/DR5sVs7Vrl0737h1P61OwhlWg5oFQZPDAAAAkHwEOgAAn2jNkXds325W4gt/MjIyzM7ZevfpY1aN1Uk6kh2NrAY1euxKAz8AAACkDoEOAMAnuDny1i1nmt1qT53n5s4zO5F+eXlm5XwaTAVWJzG1qZEGehrUWLV+HU2lAQAAUolABwDgE9wceUFZmVmJ7N+/36wa9ejZ06zcITCg4thVo8BAz4rlS5dFHXkPAACAxCHQAQCcFtwc2X+M5uDbb/t+VZdefpm0b9/e7Nzhm9dea1aNf26CCR3jHn58fTiRRt4DAAAgsQh0AACnBTdH9h+j2b17t+9XlZOba1bucdVVV5lVo0OHDpmVN2kfoViOW/k9MXMmI8wBAABShEAHANDE0GHDzKrxGI0+oO+sqTFXmocfbqDHzQKDrL988IFZeVNL+ght37bNrAAAAJBMBDoAgCa6de9uVo2qKiubjCu//IorzMpdvn7llWbVvGeQ17Skj9BTJSW+JtoAAABILgIdAEAT7dq1kzsnTjA7kfnzzky3Uuecc45ZuUuXLl3MSuTvf/+7WXmP9k0KDPBipf/snj17zA4AAADJQqADAGimd58+ZiXy3pH/MatGHTp0MCu40Y7t280qfk+XlJgVAAAAkoVABwDQTEZGRpOeMoG034zbvXXggFl5ix6Vem5u04qseGhD5fr6erMDAABAMhDoAABCCmyO7DXxTHhyg0QelVq0cKFZAQAAIBkIdAAAIQU3R/aSoSOGm5W3LFm82Kxazj8hDQAAAMlBoAMACCm4ObLfkSNHzApuouHLhsoqs0uMlStWmhUAAAASjUAHABBWYHNkv+PHj5uVu7z33vtm5U11dXVm1dwdQwabVXPzy0qlT26O2TWl488ZYQ4AAJAcBDoAgLBCNUd+5534R1rb2eHD75qVSKdOnczKOxaUlprVGfq1r9q0UcaOG2euNJednS3Pzp0ri8uXNXut6AjzjRs2mB0AAAASiUAHABBRcHPkP7/1llm5i/Z88WvTpo1ZeYMeowtuBP1w8XT51cKF0rFjR3Mlsq5du/p+/+ySOXLp5ZeZq6c+r+XlZgUAAIBEItABAEQU3Bx53bp1ZuUewX2Brr7mGrPyhq1btpjVmaqcESNHxjyiXn9//wED5PnVq2XK1Km+axoU1dbW+tYAAABIHAIdAEBE2hw5u09vsxN58/U/uq4vyr59+8yqUYcOHczKG9ZVVPh+DVeV8+Ybb5iVNfqaGT9hvLxcs8M3MWy9C0NAAACAdCPQAQBEldu3r1k1ev75583KHf4Q0BBYG/zGWpniZFqd1O78833hSzxVOZG0b99eimfMkMKiInMFAAAAiUKgAwCI6rbbbpOzzz7b7ERW/dY9gY6O635u7jyzE7l94ECz8gYNXbSpsf4aq3DTrYJ5KSADAABIFQIdAIAl2b3PHLv642uv+YIQN9i+bZtZNcrMzDQr+IUb6d62bVuzAgAAQKoR6AAALJl0zySzahQchDhV4BQmrTjR/i9oKnCkOwAAAOyBQAcAYMnXvv51X4Nbv6dKShzfHFmnLwWO6x45apRZIdCxY8fMqqlOnTqZFQAAAFKNQAcAYNnoMWPMSuTQwXdk44YNZuc8GkY9XVJido3jurt27Wp2CLShssqsmmrTpo1ZAQAAINUIdAAAluk468AqnckFkxzbS0fDqMDqnLsKCswKgSJVYf3HhReaFQAAAFKNQAcAEJPAKh315OzZZuUcOqpbwyg/qnPCO3z4sFk1d8EFF5gVAAAAUo1ABwAQE63SmTJ1qtmJLF+6TNauWWN29qcVJ4/MmGF2jX5eXGxWCPbRRx+ZVXMdOnQwKwAAAKQagQ4AIGajx4yWSy+/zOwaj17t3bvX7Oxt0cJFTXrCPFw83RdSIbS/fPCBWTXXunVrswIAAECqEegAAGKmD/LPlZaaXaNJd9/tO8pkZ0uXLJEnZs40u8Yx5QMHDTI7hLJ7926zaiqwlxIAAABSj0AHABAXrWqZXTLH7BqnXo0aMcK2oY6OKH+o6AGzE1+F0bTCQqpMonjrwAGzaqpDh0vMCgAAAOlAoAMAiFv/AQOa9NOxa6gzf958GTWsaUXJnKeekvbt25sdQtF+Q4GTwAJdfPFFZgUAAIB0INABALTI+Anjm4U6N2fd5KuISTcNJDTMCTxmpRaXL5OMjAyzQziRJlxdfc01ZgUAAIB0INABALRYcKijtCJGwxQNVdJBq4SmTJ4cMsxhRLk1b77xhlk1x4QrAACA9CLQAQAkRKhQR8OUH4wZk9IJWBog6Rh1rRIKnGalPXNWrV1DmBOD/fv3m1VTXW64nt5DAAAAaUagAwBIGA11tAImkPZgGdR/gBQVFkp9fb25mhx6zKtvTo5vjHognWa1eOlSjlnFqKqy0qyayrzuOrMCAABAupzVcIpZAwCQEHrc6ZEZM5pUyPjpuOu+/fpJ586dE1LlcfToUdm+bZs8VVLi698T7OHi6b7R5FSUxEa/hlrlFMr8slLJzs42OwAAAKQDgQ4AIGn06FO4oEWPQOXk5spN3brJN77xDWnXrp35SHRa6aP9XTZu3BgyNFJalVMwaZJvvDpiV11dLePH5ZtdUy/X7GBCGAAAQJoR6AAAkkp72ixauKhZc+JQtHrnvPPOk6uuuspcOWP37t1y7NixsAGOn/Z3uauggF45LfT4rFny3Nx5ZneGBnEvbd1qdgAAAEgXAh0AQEposLNxwwZZXl7u66uTaP6jXAQ5iXFLjx4hK6vunDhB7r3vPrMDAABAuhDoAABSTvuzbN2yRXbu3Bm14iYSDXF69OwpmZmZMR3ZQmT0zwEAALA/Ah0AQFpp5c7hw4d9PXE+/vhj2bdvn/lIU/6jWF9q00Yuu+wyeuMk0dIlS+ShogfMrin65wAAANgDgQ4AAGjiRxMnhqyc0v5E5StWmB0AAADS6XPmVwAAAN8Y+HDH4Prl5ZkVAAAA0o1ABwAAnFZXV2dWzX3z2mvNCgAAAOlGoAMAAE57YfVqs2pKx5VnZGSYHQAAANKNQAcAAPjodKtwx60GDxlqVgAAALADAh0AAOCjo+TD6XpjV7MCAACAHRDoAAAAn3UVFWbVFMetAAAA7IdABwAAyN69e2X3K7vMrimOWwEAANgPgQ4AAJCNGzaYVXN5tzGuHAAAwG4IdAAA8LijR4/Kc3PnmV1TXW64Xtq3b292AAAAsAsCHQAAPK6qstKsmhubn29WAAAAsBMCHQAAPOzEiROyoKzM7JrSZshZWVlmBwAAADsh0AEAwMP27Nkjhw6+Y3ZNaTPk1q1bmx0AAADshEAHAAAPe7qkxKyaoxkyAACAfRHoAADgUbW1tWFHlQ8dMZxmyAAAADZGoAMAgEdFqs4ZPWaMWQEAAMCOCHQAAPCgSNU5Oqq8Y8eOZgcAAAA7ItABAMCDIlXn3FVQYFYAAACwKwIdAAA8Jlp1TteuXc0OAAAAdkWgAwCAh5w4cUIK77/f7JqjOgcAAMAZCHQAAPCQjRs2yKGD75hdU1TnAAAAOMdZDaeYNQAAcLGjR4/K9ZnXmV1zVZs20gwZAADAIajQAQDAIxaUlZlVc0NHDCfMAQAAcBAqdAAA8ID6+nrJubW32TVHdQ4AAICzUKEDAIDLaSPkB4uKzK65KVOnEuYAAAA4DIEOAAAut3rVqrBjyi+9/DIZPWa02QEAAMApOHIFAICLRTtqNb+sVLKzs80OAAAATkGFDgAALhXtqFWf3BzCHAAAAIci0AEAwKUiHbVS0woLzQoAAABOQ6ADAIAL6VGrh4oeMLvmHi6eLu3btzc7AAAAOA2BDgAALqNHre7Mzze75rrccL0MHDTI7AAAAOBEBDoAALjMjOJiOXTwHbNr7oknn5TWrVubHQAAAJyIQAcAABdZu2aNLF+6zOyam10yh6NWAAAALsDYcgAAXGLv3r0yqP8As2tOp1o9O3eu2QEAAMDJCHQAAHCBI0eOyKgRI8Ietbr08svk+dWrpV27duYKAAAAnIwjVwAAOJw2QX5kxoyIfXPmPPUUYQ4AAICLEOgAAOBwUyZPlg2VVWbXnI4oz8jIMDsAAAC4AYEOAAAONn/e/IhhztARw2XEyJFmBwAAALeghw4AAA6lYc4TM2eaXXNdbrhefrVwISPKAQAAXIhABwAAB6qtrZVRw4abXXPaBHnx0qWMKAcAAHApAh0AABwmWpijVq1dQ98cAAAAF6OHDgAADmIlzFlcvowwBwAAwOUIdAAAcAgrYc6UqVOla9euZgcAAAC3ItABAMABrIY54yeMNzsAAAC4GYEOAAA2R5gDAACAYAQ6AADYmI4mjxbm3DlxAmEOAACAxxDoAABgUxrmPDFzptmF1ic3R378k5+YHQAAALyCseUAANjMiRMnZMrkybKhsspcCU0rczTMad26tbkCAAAAryDQAQDARo4cOSJT7rlHdr+yy1wJjZ45AAAA3kagAwCATezdu1cm3X23HDr4jrkSGmEOAAAA6KEDAIANrF2zRgb1H0CYAwAAAEuo0AEAII20X86M4mJZvnSZuRLe4vJl0rVrV7MDAACAl1GhAwBAmugRq745OVHDnEsvv0xWrV1DmAMAAIDTCHQAAEgxrcpZumSJpSNWXW64XhYvXSoZGRnmCgAAAMCRKwAAUqq+vl4eLCqKOsVKDR0xXApP/V7GkgMAACAYgQ4AACmgVTmrV62Sh4oeMFcie7h4uowYOdLsAAAAgKYIdAAASDLtlfPYI49YqsrRfjlznnqKI1YAAACIiB46AOBgenxn/rz5vuoP2M/Ro0fl8VmzfL1yrIQ5fXJz5PnVqwlzAAAAEBUVOgDgYD+aOFE2VFb5qjruLiiQ3n360G/FBjRg27hhg0wumGSuRDe7ZI70HzDA7AAAAIDICHQAwKGqq6tl/Lh8s2ukE5HuKihgvHUa6dflkeLiqNOr/LQqZ1phobRv395cAQAAAKIj0AEAB9IKkL45OWFDA4Kd1KutrZWnS0osHa3y06ocqqoAAAAQDwIdAHAg7ZvzxMyZZhcewU7yxRPkUJUDAACAliLQAQCH0Ua7dwwcaPlIjyLYSSytkKqpqZEFpaUxBTna62haUZFkZ2ebKwAAAEB8CHQAwIE01FlQVibPzZ1nrljjb57crXt3adeunbkKq/TzXlVZ6fvcxxKoqSlTp8roMaM5XgUAAICEINABAAfTseWLFi6U5UuXmSvW3Tlxgq9/CyOyo9u7d69valWsAZoaOmK4TJg4keNVAAAASCgCHQBwgXj6uPjpcax+eXmSk5tL1U6AI0eOyNYtW+KqxlHaJ6dg0iTp2LGjuQIAAAAkDoEOALhIS4IdpSHE7QMHSmZmpifDHT1SVVdXJy+sXi0bKqvM1djQrwgAAACpQKADAC7U0mBHabhz4403So+ePV19XEiPre165RVZV1HR4s/XyFGjCHIAAACQEgQ6AOBi2vvltytXxtVjJ5A2U9YjWd/OzJROnTo5OuDRo1T79u2TP9TV+Rocx3OcKpD2yBk9ZgxHqwAAAJBSBDoA4AEaYlS8WCFPzJxprrSMP+C56qqr5OprrpEOHTrYcnqTjhc/fPiwvPnGG7J///6EBDhK//yDhww99b/B9B0CAABAWhDoAICHaMBRU1MjC0pLW3S8KBTtHfP1K6+ULl26yH9ceKFccMEFKQt6/MHNRx99JH/54APZvXu3vHXgQML/jP5jVZ07d2b8OAAAANKKQAcAPMpftbNyxfKEVK1E4g97fOsuXXy/Kn/wE40/qPHTapu///3vcuzYsbibF1ul1Thjx42zcS+hBvnsbwdkx/o1Urlxi7z08n6RTr2k/5DhMuqOm+TyNq3M7wMAAICbEOgAAHy9dmp31qYk3HEC/5Gqrjd2lYyMDHPVhj77i9T99ll5dNZGkb5j5Qc5GXJha5Hjh7ZK2fRS+eOV98gvy/Il81xCHQAAALch0AEANKHhzh9ff73FU5+cRquI+uXlyTevvdbeIY7R8PEfpXzaZHm45gopmPuQ5N9wsXzefEyrdj59+3m5645C+UP2L6Tisd7ylbPMhwAAAOAKBDoAgLCOHj0qdXV1CZsIZSeBk7syT/3PSc2NGz5+XRZPnig/r75MJr/wCxn/rX+X5nnNP6RuzmgZ/JTIj1cvkoLML5vrAAAAcAMCHQCAZf6R3wfqD8jLW7c4qoJHK3Bu7tFTrux4paNHr58OczZ8TvqVLJQnBlwRUJkTqEGO18yQG0cskP+97VnZ9lQuVToAAAAuQqADAIibf7rUO++84wt5Dh9+V3bW1KS9kmfoiOHSocMlcvHFF9l6rHrMGj6SVx6/U743t04+1+cJ2fjsQLnk8+FTmoa3l8nwnoWy++yhMm9Xsdzall46AAAAbkGgAwBIOH/Qc/z4cTn49tu+a/7JVCre0EePSd2YlWV2ZyZmXX7FFXLOOee4J7gJ6TP5cNPDkpe/RD5q1UMeqHpWRl91jvlYGO+vkR9+d5K8JF+T0Uuflwey2poPAAAAwOkIdAAAcICGDzfK/bkT5fkPRS4YVSpVP+8pbaMdoTod6LSRLo+skWXDvx6i1w4AAACc6HPmVwAAYFcNR2X3r5+V5z88eWpzrQy9/broYc4pDSeOyz99q4+l/oO/i/7TAAAAcAcCHQAAbK1BPq2vkDnPvda4zegvfTtbm1h18tgHUm/W//zz+3LMrAEAAOB8BDoAANhZw4dSs3iJ7PaV17SVbiNvlist/e19Uo69f9hU6JzanfiECh0AAAAXIdABAMDGGt7fKSuWH2jctLpB+n63vcU+OJ/IR0cOE+IAAAC4FIEOAAC2dVz+tG6lbPq0cdeq2y1yQ4cvNG6i+qcc3n/YrEXObvsl+TezBgAAgPMR6AAAYFef1MuWlb83mzaS2TtTOlgdU3Xyfamv/cBsRL701fPlXLMGAACA8xHoAABgSw3yv3/cIuX1pjxHrpZbvv1Vy2PHG/7yZ3ntPf+Bq/Pkmx3Ol1ZmBwAAAOcj0AEAwJb+r+yv3S7vmZ2ce61cfdkXzSaaBjnx5z/K70430DlPLvnKlyyHQQAAALC/sxpOMWsAAGAXJ9+U0pwBMnO/v0KnJfrIYzuekTs6nG32AAAAcDoCHQAAbKjh7WUyvGeh7PbtWsm/d7pBMtuf49tF1XBU9m+tk8P+Cp2rpklFVb504swVAACAaxDoAABgOw1yvGaG3DhigXzs218rP169VAoyLbY1PrZJ7rv+h7LaV9zTSi6csFQ2Tb1BIsdBDfLZvz4R+eK/yefNFQAAANgXPXQAALCdT+Qv7/zZhDmnnH2NXHOFxeocDYPefEU2nj6pdZX07/GNyGFOw3E5XLNAJg/6pbz2mbkGAAAAWyPQAQDAdj6Vox+8b9anXP0Nufw8q+elPpY/7dp1Jgy6uKf0uPY8swnWIJ99uEdWFY+TASNmyPr/Ic0BAABwCgIdAABs55/ywZ8/MmuRNtd1lPZW/8b+5M/yu8o/mc3Z8vWRvaXzOc3nWzX865DsXPSgDOt9h0xdUCt/M9cBAADgDAQ6AADYzkn55IS/WqaNdLryImltdpE1yCd/qpG19ea8Vatekn9bJ/lC467RZ0flzfVPyaS7F8ibX+ktkx8aQ7NkAAAAByLQAQDA1trJlV89T5rX2ITyT/nj5k3ylm/dSi4YPlh6dQiIcxrel62/WCC7v5QrDz/7MxmX202+23+YDPtOG/MbAAAA4BQEOgAA2E4r+UJr/6ypL8n5X/6iWUdxfJ9Ur3y9cX12rkzJ7yptA5Ogsy6SHgX3yugeHeW8z5sPnPVv8qVzz25cAwAAwDEIdAAAsJ1z5cKvXWDWV8oVX7US6HwmH259Xn793slT6zZyTcH3pe+lFoMgAAAAOA6BDgAAtnO2tLvwIrO26NN6qVy0SbR7Tqtv/VAe+t63LPbdAQAAgBMR6AAAYDtfkP+47GtivbPNSTlW81uZ98rfRVpdLxMfGinfPpdOxwAAAG5GoAMAgO2cJa2vypQevtY2R+Vv//RPvArjX2/K83NXy0fSQbKn/0zuvK6txSbKAADg/2/vDl6sqsM4Dr+XVKKdpdJguslFgisDFw4p6cZFSOhGp02iCbUQhhG0hSTYThIZIXEKRGyhLsQBIaESg6IcYcAQAlEMTCFczCDTJbHxOnRvi6A/4HznPs/qPb/3P/jwO+dAKkEHABqotWRNvb156dx0v+48mOke/q+Zun1utI5NzNbqPZ/WkZ2ry5dzAADmP0EHAJqotbw27HinltSDunr9brV7x/81W1PXx2rkyM+1avfxGju4oZa6mgMA0BcEHQBopBdq8eBQ7d8yUH+Mnagzv0xXp7f5R6dd9699XsMfjdfAyKn64uNNNfDvr8gBAJj3BB0AaKqFr9e7nxyu99+4WZ/tGq6jF76ricnJmvzxcn15aFdtP3y3BkfP1uiH6+tVMQcAoK8IOgDQWK1aMLCpDn51vk7sXlF3Th+ooW1769DpiXq67kCNXzlWHwyurBe1HACAvtPqzOnNAEDf+b3G92ytkW+nqhbvqws3hmvtgt4KAIDGckMHAAAAIIygAwAAABBG0AEAAAAII+gAAAAAhBF0AAAAAMIIOgDQz579WdOPnnTnJ9P1uP2sOwMA0GiCDgD0rac1deNKXbzV7j62f6ivr/1Wf3W6jwAANFerM6c3AwDz3Oy9b+rkpVv1d2emHt78qa5+/2tN93ZdL9Vrb26st9atqlcWLaxlG9+robUv93YAADSFoAMAAAAQxitXAAAAAGEEHQAAAIAwgg4AAABAGEEHAAAAIIygAwAAABBG0AEAAAAII+gAAAAAhBF0AAAAAMIIOgAAAABhBB0AAACAMIIOAAAAQBhBBwAAACCMoAMAAAAQRtABAAAACCPoAAAAAIQRdAAAAADCCDoAAAAAYQQdAAAAgDCCDgAAAEAYQQcAAAAgjKADAAAAEEbQAQAAAAgj6AAAAACEEXQAAAAAwgg6AAAAAGEEHQAAAIAwgg4AAABAGEEHAAAAIIygAwAAABBG0AEAAAAII+gAAAAAhBF0AAAAAMIIOgAAAABhBB0AAACAMIIOAAAAQBhBBwAAACCMoAMAAAAQRtABAAAACCPoAAAAAIQRdAAAAADCCDoAAAAAYQQdAAAAgDCCDgAAAEAYQQcAAAAgjKADAAAAEEbQAQAAAAgj6AAAAACEEXQAAAAAwgg6AAAAAGEEHQAAAIAwgg4AAABAGEEHAAAAIIygAwAAABBG0AEAAAAII+gAAAAAhBF0AAAAAMIIOgAAAABhBB0AAACAMIIOAAAAQBhBBwAAACCMoAMAAAAQRtABAAAACCPoAAAAAIQRdAAAAADCCDoAAAAAYQQdAAAAgDCCDgAAAEAYQQcAAAAgjKADAAAAEEbQAQAAAIhS9RwFt3mzde7JtAAAAABJRU5ErkJggg==;connectable=0;allowArrows=0;recursiveResize=0;expand=0;movable=0;resizable=0;rotatable=0;deletable=0;cloneable=0;editable=0;locked=0;" vertex="1" parent="1">
          <mxGeometry x="230" y="530" width="1140" height="865" as="geometry" />
        </mxCell>
        <mxCell id="_97EwcZJtdS-pwnFcjl7-3" value="\({joint}_{1}\)" style="text;html=1;align=center;verticalAlign=middle;resizable=0;points=[];autosize=1;strokeColor=none;fillColor=none;fontSize=21;" vertex="1" parent="1">
          <mxGeometry x="646" y="1120" width="140" height="40" as="geometry" />
        </mxCell>
        <mxCell id="_97EwcZJtdS-pwnFcjl7-4" value="\({link}_{1}\)" style="text;html=1;align=center;verticalAlign=middle;resizable=0;points=[];autosize=1;strokeColor=none;fillColor=none;fontSize=21;" vertex="1" parent="1">
          <mxGeometry x="542.81" y="1030" width="130" height="40" as="geometry" />
        </mxCell>
        <mxCell id="_97EwcZJtdS-pwnFcjl7-5" value="\({joint}_{2}\)" style="text;html=1;align=center;verticalAlign=middle;resizable=0;points=[];autosize=1;strokeColor=none;fillColor=none;fontSize=21;rotation=339;" vertex="1" parent="1">
          <mxGeometry x="422.80999999999995" y="942.5" width="140" height="40" as="geometry" />
        </mxCell>
        <mxCell id="_97EwcZJtdS-pwnFcjl7-6" value="\({link}_{2}\)" style="text;html=1;align=center;verticalAlign=middle;resizable=0;points=[];autosize=1;strokeColor=none;fillColor=none;fontSize=21;rotation=339;" vertex="1" parent="1">
          <mxGeometry x="332.80999999999995" y="1020" width="130" height="40" as="geometry" />
        </mxCell>
        <mxCell id="_97EwcZJtdS-pwnFcjl7-7" value="\({joint}_{3}\)" style="text;html=1;align=center;verticalAlign=middle;resizable=0;points=[];autosize=1;strokeColor=none;fillColor=none;fontSize=21;" vertex="1" parent="1">
          <mxGeometry x="1090" y="710" width="140" height="40" as="geometry" />
        </mxCell>
        <mxCell id="_97EwcZJtdS-pwnFcjl7-8" value="\({link}_{3}\)" style="text;html=1;align=center;verticalAlign=middle;resizable=0;points=[];autosize=1;strokeColor=none;fillColor=none;fontSize=21;rotation=28;" vertex="1" parent="1">
          <mxGeometry x="1100" y="780" width="130" height="40" as="geometry" />
        </mxCell>
        <mxCell id="_97EwcZJtdS-pwnFcjl7-9" value="\({\hat{Z}}_{0}\) &lt;br style=&quot;font-size: 21px;&quot;&gt;is out of the page" style="text;html=1;align=center;verticalAlign=middle;resizable=1;points=[];autosize=1;strokeColor=none;fillColor=none;fontSize=21;" vertex="1" parent="1">
          <mxGeometry x="546" y="1210" width="180" height="60" as="geometry" />
        </mxCell>
        <mxCell id="_97EwcZJtdS-pwnFcjl7-11" value="\({\hat{X}}_{0}\)" style="endArrow=classic;html=1;rounded=0;strokeWidth=3;fontSize=21;" edge="1" parent="1">
          <mxGeometry width="50" height="50" relative="1" as="geometry">
            <mxPoint x="655" y="1180" as="sourcePoint" />
            <mxPoint x="611" y="1070" as="targetPoint" />
          </mxGeometry>
        </mxCell>
        <mxCell id="_97EwcZJtdS-pwnFcjl7-12" value="\({\hat{Y}}_{0}\)" style="endArrow=classic;html=1;rounded=0;strokeWidth=3;fontSize=21;" edge="1" parent="1">
          <mxGeometry width="50" height="50" relative="1" as="geometry">
            <mxPoint x="655" y="1178" as="sourcePoint" />
            <mxPoint x="528" y="1231" as="targetPoint" />
          </mxGeometry>
        </mxCell>
        <mxCell id="_97EwcZJtdS-pwnFcjl7-13" value="\({\hat{Z}}_{1}\)" style="endArrow=classic;html=1;rounded=0;strokeWidth=3;fontSize=21;" edge="1" parent="1">
          <mxGeometry width="50" height="50" relative="1" as="geometry">
            <mxPoint x="580" y="974" as="sourcePoint" />
            <mxPoint x="707" y="920" as="targetPoint" />
          </mxGeometry>
        </mxCell>
        <mxCell id="_97EwcZJtdS-pwnFcjl7-15" value="\({\hat{X}}_{1}\)" style="endArrow=classic;html=1;rounded=0;strokeWidth=3;fontSize=21;" edge="1" parent="1">
          <mxGeometry width="50" height="50" relative="1" as="geometry">
            <mxPoint x="580" y="975" as="sourcePoint" />
            <mxPoint x="535" y="869" as="targetPoint" />
          </mxGeometry>
        </mxCell>
        <mxCell id="_97EwcZJtdS-pwnFcjl7-16" value="\({\hat{Y}}_{1}\) &lt;br style=&quot;font-size: 21px;&quot;&gt;is out of the page" style="text;html=1;align=center;verticalAlign=middle;resizable=1;points=[];autosize=1;strokeColor=none;fillColor=none;fontSize=21;rotation=-15;" vertex="1" parent="1">
          <mxGeometry x="473.73" y="970" width="180" height="60" as="geometry" />
        </mxCell>
        <mxCell id="_97EwcZJtdS-pwnFcjl7-17" value="\({\hat{Z}}_{2}\) &lt;br style=&quot;font-size: 21px;&quot;&gt;is out of the page" style="text;html=1;align=center;verticalAlign=middle;resizable=1;points=[];autosize=1;strokeColor=none;fillColor=none;fontSize=21;" vertex="1" parent="1">
          <mxGeometry x="990" y="800" width="180" height="60" as="geometry" />
        </mxCell>
        <mxCell id="_97EwcZJtdS-pwnFcjl7-20" value="\({\hat{X}}_{2}\)" style="endArrow=classic;html=1;rounded=0;strokeWidth=3;fontSize=21;" edge="1" parent="1">
          <mxGeometry width="50" height="50" relative="1" as="geometry">
            <mxPoint x="1100" y="769" as="sourcePoint" />
            <mxPoint x="1060" y="680" as="targetPoint" />
          </mxGeometry>
        </mxCell>
        <mxCell id="_97EwcZJtdS-pwnFcjl7-21" value="\({\hat{Y}}_{2}\)" style="endArrow=classic;html=1;rounded=0;strokeWidth=3;fontSize=21;" edge="1" parent="1">
          <mxGeometry width="50" height="50" relative="1" as="geometry">
            <mxPoint x="1100" y="767" as="sourcePoint" />
            <mxPoint x="973" y="820" as="targetPoint" />
          </mxGeometry>
        </mxCell>
        <mxCell id="_97EwcZJtdS-pwnFcjl7-22" value="\({\hat{Z}}_{3}\) &lt;br style=&quot;font-size: 21px;&quot;&gt;is out of the page" style="text;html=1;align=center;verticalAlign=middle;resizable=1;points=[];autosize=1;strokeColor=none;fillColor=none;fontSize=21;rotation=25;" vertex="1" parent="1">
          <mxGeometry x="1170" y="910" width="180" height="60" as="geometry" />
        </mxCell>
        <mxCell id="_97EwcZJtdS-pwnFcjl7-24" value="\({\hat{X}}_{3}\)" style="endArrow=classic;html=1;rounded=0;strokeWidth=3;fontSize=21;" edge="1" parent="1">
          <mxGeometry width="50" height="50" relative="1" as="geometry">
            <mxPoint x="1237" y="839" as="sourcePoint" />
            <mxPoint x="1197" y="750" as="targetPoint" />
          </mxGeometry>
        </mxCell>
        <mxCell id="_97EwcZJtdS-pwnFcjl7-25" value="\({\hat{Y}}_{3}\)" style="endArrow=classic;html=1;rounded=0;strokeWidth=3;fontSize=21;" edge="1" parent="1">
          <mxGeometry width="50" height="50" relative="1" as="geometry">
            <mxPoint x="1237" y="837" as="sourcePoint" />
            <mxPoint x="1110" y="890" as="targetPoint" />
          </mxGeometry>
        </mxCell>
        <mxCell id="_97EwcZJtdS-pwnFcjl7-26" value="" style="endArrow=none;html=1;rounded=0;strokeWidth=3;dashed=1;dashPattern=8 8;" edge="1" parent="1">
          <mxGeometry width="50" height="50" relative="1" as="geometry">
            <mxPoint x="430" y="1270" as="sourcePoint" />
            <mxPoint x="653.73" y="1180" as="targetPoint" />
          </mxGeometry>
        </mxCell>
        <mxCell id="_97EwcZJtdS-pwnFcjl7-27" value="" style="endArrow=none;html=1;rounded=0;strokeWidth=3;dashed=1;dashPattern=8 8;" edge="1" parent="1">
          <mxGeometry width="50" height="50" relative="1" as="geometry">
            <mxPoint x="370" y="1120" as="sourcePoint" />
            <mxPoint x="490" y="1068" as="targetPoint" />
          </mxGeometry>
        </mxCell>
        <mxCell id="_97EwcZJtdS-pwnFcjl7-28" value="\({L}_{1}\)" style="endArrow=classic;startArrow=classic;html=1;rounded=0;strokeWidth=3;fontSize=21;" edge="1" parent="1">
          <mxGeometry width="50" height="50" relative="1" as="geometry">
            <mxPoint x="430" y="1270" as="sourcePoint" />
            <mxPoint x="370" y="1120" as="targetPoint" />
          </mxGeometry>
        </mxCell>
        <mxCell id="_97EwcZJtdS-pwnFcjl7-29" value="" style="endArrow=none;html=1;rounded=0;strokeWidth=3;dashed=1;dashPattern=8 8;" edge="1" parent="1">
          <mxGeometry width="50" height="50" relative="1" as="geometry">
            <mxPoint x="1101" y="768" as="sourcePoint" />
            <mxPoint x="1150" y="640" as="targetPoint" />
          </mxGeometry>
        </mxCell>
        <mxCell id="_97EwcZJtdS-pwnFcjl7-30" value="" style="endArrow=none;html=1;rounded=0;strokeWidth=3;dashed=1;dashPattern=8 8;" edge="1" parent="1">
          <mxGeometry width="50" height="50" relative="1" as="geometry">
            <mxPoint x="1240" y="838" as="sourcePoint" />
            <mxPoint x="1290" y="730" as="targetPoint" />
          </mxGeometry>
        </mxCell>
        <mxCell id="_97EwcZJtdS-pwnFcjl7-31" value="\({L}_{3}\)" style="endArrow=classic;startArrow=classic;html=1;rounded=0;strokeWidth=3;fontSize=21;" edge="1" parent="1">
          <mxGeometry width="50" height="50" relative="1" as="geometry">
            <mxPoint x="1290" y="732" as="sourcePoint" />
            <mxPoint x="1144" y="657" as="targetPoint" />
          </mxGeometry>
        </mxCell>
      </root>
    </mxGraphModel>
  </diagram>
</mxfile>
